<?xml version="1.0" encoding="utf-8"?>
<!DOCTYPE svg PUBLIC "-//W3C//DTD SVG 1.1//EN" "http://www.w3.org/Graphics/SVG/1.1/DTD/svg11.dtd">
<svg version="1.1" id="Layer_1" xmlns="http://www.w3.org/2000/svg" xmlns:xlink="http://www.w3.org/1999/xlink" x="0px" y="0px"
	 width="50px" height="35.346px" viewBox="0 0 50 35.346" enable-background="new 0 0 50 35.346" xml:space="preserve">
<path d="M44.372,34.374c3.028,3.009,7.571-1.66,4.618-4.604L35.219,16.106c-0.967-0.961-2.724-1.686-4.091-1.686
	c0,0-16.838,0-19.939,0c1.99-1.984,8.875-8.843,8.875-8.843c2.951-2.943-1.592-7.617-4.619-4.603L1.008,15.365
	c-1.276,1.272-1.276,3.344,0,4.617l14.44,14.393c3.025,3.009,7.568-1.66,4.615-4.604c0,0-6.885-6.861-8.873-8.846
	c3.06,0,18.47,0.003,18.47,0.003c0.583,0,1.559,0.403,1.972,0.81L44.372,34.374z"/>
</svg>
