<?xml version="1.0" encoding="utf-8"?>
<!DOCTYPE svg PUBLIC "-//W3C//DTD SVG 1.1//EN" "http://www.w3.org/Graphics/SVG/1.1/DTD/svg11.dtd">
<svg version="1.1" id="Layer_1" xmlns="http://www.w3.org/2000/svg" xmlns:xlink="http://www.w3.org/1999/xlink" x="0px" y="0px"
	 width="100%" height="100%" viewBox="0 0 50 35.346" enable-background="new 0 0 50 35.346" xml:space="preserve">
<path fill-rule="evenodd" clip-rule="evenodd" fill="rgba(0,0,0,1)" d="M18.367,21.737c0.413-0.407,1.389-0.81,1.972-0.81c0,0,15.41-0.003,18.47-0.003
	c-1.988,1.984-8.873,8.846-8.873,8.846c-2.954,2.944,1.59,7.613,4.615,4.604l14.44-14.392c1.277-1.274,1.277-3.345,0-4.618
	L34.554,0.975c-3.026-3.015-7.57,1.659-4.618,4.602c0,0,6.885,6.859,8.875,8.843c-3.102,0-19.94,0-19.94,0
	c-1.367,0-3.124,0.725-4.091,1.686L1.009,29.77c-2.954,2.944,1.59,7.613,4.618,4.604L18.367,21.737z"/>
</svg>
