<?xml version="1.0" encoding="utf-8"?>
<!-- Generator: Adobe Illustrator 15.0.2, SVG Export Plug-In . SVG Version: 6.00 Build 0)  -->
<!DOCTYPE svg PUBLIC "-//W3C//DTD SVG 1.1//EN" "http://www.w3.org/Graphics/SVG/1.1/DTD/svg11.dtd">
<svg version="1.1" id="Layer_1" xmlns="http://www.w3.org/2000/svg" xmlns:xlink="http://www.w3.org/1999/xlink" x="0px" y="0px"
	 width="106.351px" height="147.696px" viewBox="0 0 106.351 147.696" enable-background="new 0 0 106.351 147.696"
	 xml:space="preserve">
<g>
	<defs>
		<rect id="SVGID_1_" width="106.351" height="147.696"/>
	</defs>
	<clipPath id="SVGID_2_">
		<use xlink:href="#SVGID_1_"  overflow="visible"/>
	</clipPath>
	<g clip-path="url(#SVGID_2_)">
		<defs>
			<polygon id="SVGID_3_" points="36.728,0 53.252,16.523 69.536,0 			"/>
		</defs>
		<clipPath id="SVGID_4_">
			<use xlink:href="#SVGID_3_"  overflow="visible"/>
		</clipPath>
		<defs>
			<filter id="Adobe_OpacityMaskFilter" filterUnits="userSpaceOnUse" x="36.728" y="0" width="32.808" height="16.523">
				<feColorMatrix  type="matrix" values="1 0 0 0 0  0 1 0 0 0  0 0 1 0 0  0 0 0 1 0"/>
			</filter>
		</defs>
		<mask maskUnits="userSpaceOnUse" x="36.728" y="0" width="32.808" height="16.523" id="SVGID_5_">
			<g filter="url(#Adobe_OpacityMaskFilter)">
				
					<linearGradient id="SVGID_6_" gradientUnits="userSpaceOnUse" x1="-4.882812e-04" y1="147.6948" x2="0.9995" y2="147.6948" gradientTransform="matrix(32.8071 0 0 -32.8071 36.75 4853.7329)">
					<stop  offset="0" style="stop-color:#FFFFFF"/>
					<stop  offset="1" style="stop-color:#4D4D4D"/>
				</linearGradient>
				<rect x="36.728" clip-path="url(#SVGID_4_)" fill="url(#SVGID_6_)" width="32.808" height="16.523"/>
			</g>
		</mask>
		
			<linearGradient id="SVGID_7_" gradientUnits="userSpaceOnUse" x1="0" y1="147.6948" x2="1" y2="147.6948" gradientTransform="matrix(32.8071 0 0 -32.8071 36.7188 4853.7334)">
			<stop  offset="0" style="stop-color:#565656"/>
			<stop  offset="1" style="stop-color:#565656"/>
		</linearGradient>
		<rect x="36.728" clip-path="url(#SVGID_4_)" mask="url(#SVGID_5_)" fill="url(#SVGID_7_)" width="32.808" height="16.523"/>
	</g>
	<g clip-path="url(#SVGID_2_)">
		<defs>
			<polygon id="SVGID_8_" points="0.502,35.564 17.102,52.165 25.402,27.263 			"/>
		</defs>
		<clipPath id="SVGID_9_">
			<use xlink:href="#SVGID_8_"  overflow="visible"/>
		</clipPath>
		<defs>
			<filter id="Adobe_OpacityMaskFilter_1_" filterUnits="userSpaceOnUse" x="0.502" y="27.263" width="24.9" height="24.902">
				<feColorMatrix  type="matrix" values="1 0 0 0 0  0 1 0 0 0  0 0 1 0 0  0 0 0 1 0"/>
			</filter>
		</defs>
		<mask maskUnits="userSpaceOnUse" x="0.502" y="27.263" width="24.9" height="24.902" id="SVGID_10_">
			<g filter="url(#Adobe_OpacityMaskFilter_1_)">
				
					<linearGradient id="SVGID_11_" gradientUnits="userSpaceOnUse" x1="0" y1="147.6958" x2="1" y2="147.6958" gradientTransform="matrix(24.9004 0 0 -24.9004 0.5 3717.394)">
					<stop  offset="0" style="stop-color:#FFFFFF"/>
					<stop  offset="1" style="stop-color:#4D4D4D"/>
				</linearGradient>
				<rect x="0.502" y="27.263" clip-path="url(#SVGID_9_)" fill="url(#SVGID_11_)" width="24.9" height="24.902"/>
			</g>
		</mask>
		
			<linearGradient id="SVGID_12_" gradientUnits="userSpaceOnUse" x1="0" y1="147.6958" x2="1" y2="147.6958" gradientTransform="matrix(24.9004 0 0 -24.9004 0.5 3717.3945)">
			<stop  offset="0" style="stop-color:#565656"/>
			<stop  offset="1" style="stop-color:#565656"/>
		</linearGradient>
		
			<rect x="0.502" y="27.263" clip-path="url(#SVGID_9_)" mask="url(#SVGID_10_)" fill="url(#SVGID_12_)" width="24.9" height="24.902"/>
	</g>
	<g clip-path="url(#SVGID_2_)">
		<defs>
			<polygon id="SVGID_13_" points="0.499,70.947 25.293,79.292 17.098,54.347 			"/>
		</defs>
		<clipPath id="SVGID_14_">
			<use xlink:href="#SVGID_13_"  overflow="visible"/>
		</clipPath>
		<defs>
			<filter id="Adobe_OpacityMaskFilter_2_" filterUnits="userSpaceOnUse" x="0.499" y="54.347" width="24.794" height="24.945">
				<feColorMatrix  type="matrix" values="1 0 0 0 0  0 1 0 0 0  0 0 1 0 0  0 0 0 1 0"/>
			</filter>
		</defs>
		<mask maskUnits="userSpaceOnUse" x="0.499" y="54.347" width="24.794" height="24.945" id="SVGID_15_">
			<g filter="url(#Adobe_OpacityMaskFilter_2_)">
				
					<linearGradient id="SVGID_16_" gradientUnits="userSpaceOnUse" x1="-4.882812e-04" y1="147.6948" x2="0.9995" y2="147.6948" gradientTransform="matrix(24.7939 0 0 -24.7939 0.5 3728.7822)">
					<stop  offset="0" style="stop-color:#FFFFFF"/>
					<stop  offset="1" style="stop-color:#4D4D4D"/>
				</linearGradient>
				<rect x="0.499" y="54.347" clip-path="url(#SVGID_14_)" fill="url(#SVGID_16_)" width="24.794" height="24.945"/>
			</g>
		</mask>
		
			<linearGradient id="SVGID_17_" gradientUnits="userSpaceOnUse" x1="-4.882812e-04" y1="147.6958" x2="0.9995" y2="147.6958" gradientTransform="matrix(24.7939 0 0 -24.7939 0.5 3728.7825)">
			<stop  offset="0" style="stop-color:#565656"/>
			<stop  offset="1" style="stop-color:#565656"/>
		</linearGradient>
		
			<rect x="0.499" y="54.347" clip-path="url(#SVGID_14_)" mask="url(#SVGID_15_)" fill="url(#SVGID_17_)" width="24.794" height="24.945"/>
	</g>
	<polygon clip-path="url(#SVGID_2_)" fill="#565656" points="52.03,89.533 27.146,81.158 35.309,106.011 	"/>
	<polygon clip-path="url(#SVGID_2_)" fill="#565656" points="89.721,89.15 106.249,105.677 106.249,72.623 	"/>
	<g clip-path="url(#SVGID_2_)">
		<defs>
			<polygon id="SVGID_18_" points="54.292,88.687 87.473,88.566 70.942,72.034 			"/>
		</defs>
		<clipPath id="SVGID_19_">
			<use xlink:href="#SVGID_18_"  overflow="visible"/>
		</clipPath>
		<defs>
			<filter id="Adobe_OpacityMaskFilter_3_" filterUnits="userSpaceOnUse" x="54.292" y="72.034" width="33.181" height="16.653">
				<feColorMatrix  type="matrix" values="1 0 0 0 0  0 1 0 0 0  0 0 1 0 0  0 0 0 1 0"/>
			</filter>
		</defs>
		<mask maskUnits="userSpaceOnUse" x="54.292" y="72.034" width="33.181" height="16.653" id="SVGID_20_">
			<g filter="url(#Adobe_OpacityMaskFilter_3_)">
				
					<linearGradient id="SVGID_21_" gradientUnits="userSpaceOnUse" x1="4.882812e-04" y1="147.6958" x2="1.0005" y2="147.6958" gradientTransform="matrix(33.1816 0 0 -33.1816 54.2812 4981.1416)">
					<stop  offset="0" style="stop-color:#FFFFFF"/>
					<stop  offset="1" style="stop-color:#4D4D4D"/>
				</linearGradient>
				<rect x="54.292" y="72.034" clip-path="url(#SVGID_19_)" fill="url(#SVGID_21_)" width="33.181" height="16.653"/>
			</g>
		</mask>
		
			<linearGradient id="SVGID_22_" gradientUnits="userSpaceOnUse" x1="-4.882812e-04" y1="147.6948" x2="0.9995" y2="147.6948" gradientTransform="matrix(33.1816 0 0 -33.1816 54.3125 4981.1411)">
			<stop  offset="0" style="stop-color:#565656"/>
			<stop  offset="1" style="stop-color:#565656"/>
		</linearGradient>
		
			<rect x="54.292" y="72.034" clip-path="url(#SVGID_19_)" mask="url(#SVGID_20_)" fill="url(#SVGID_22_)" width="33.181" height="16.653"/>
	</g>
	<g clip-path="url(#SVGID_2_)">
		<defs>
			<polygon id="SVGID_23_" points="70.942,106.265 87.461,89.744 54.542,89.864 			"/>
		</defs>
		<clipPath id="SVGID_24_">
			<use xlink:href="#SVGID_23_"  overflow="visible"/>
		</clipPath>
		<defs>
			<filter id="Adobe_OpacityMaskFilter_4_" filterUnits="userSpaceOnUse" x="54.542" y="89.744" width="32.919" height="16.521">
				<feColorMatrix  type="matrix" values="1 0 0 0 0  0 1 0 0 0  0 0 1 0 0  0 0 0 1 0"/>
			</filter>
		</defs>
		<mask maskUnits="userSpaceOnUse" x="54.542" y="89.744" width="32.919" height="16.521" id="SVGID_25_">
			<g filter="url(#Adobe_OpacityMaskFilter_4_)">
				
					<linearGradient id="SVGID_26_" gradientUnits="userSpaceOnUse" x1="4.882812e-04" y1="147.6958" x2="1.0005" y2="147.6958" gradientTransform="matrix(-32.9199 0 0 32.9199 87.4688 -4764.1255)">
					<stop  offset="0" style="stop-color:#FFFFFF"/>
					<stop  offset="1" style="stop-color:#4D4D4D"/>
				</linearGradient>
				<rect x="54.542" y="89.744" clip-path="url(#SVGID_24_)" fill="url(#SVGID_26_)" width="32.919" height="16.521"/>
			</g>
		</mask>
		
			<linearGradient id="SVGID_27_" gradientUnits="userSpaceOnUse" x1="4.882812e-04" y1="147.6958" x2="1.0005" y2="147.6958" gradientTransform="matrix(-32.9199 0 0 32.9199 87.4688 -4764.126)">
			<stop  offset="0" style="stop-color:#565656"/>
			<stop  offset="1" style="stop-color:#565656"/>
		</linearGradient>
		
			<rect x="54.542" y="89.744" clip-path="url(#SVGID_24_)" mask="url(#SVGID_25_)" fill="url(#SVGID_27_)" width="32.919" height="16.521"/>
	</g>
	<polygon clip-path="url(#SVGID_2_)" fill="#565656" points="54.292,17.348 87.473,17.227 70.941,0.695 	"/>
	<polygon clip-path="url(#SVGID_2_)" fill="#565656" points="0,69.781 16.527,53.254 0,36.727 	"/>
	<path clip-path="url(#SVGID_2_)" fill="#202020" d="M70.941,71.203L70.941,71.203L70.941,71.203z"/>
	<polygon clip-path="url(#SVGID_2_)" fill="#565656" points="36.483,106.509 69.521,106.509 53.121,90.11 	"/>
	<polygon clip-path="url(#SVGID_2_)" fill="#565656" points="105.415,71.792 72.363,71.791 88.89,88.317 	"/>
	<polygon clip-path="url(#SVGID_2_)" fill="#565656" points="1.592,33.958 25.868,25.868 33.959,1.59 	"/>
	<polygon clip-path="url(#SVGID_2_)" fill="#565656" points="51.324,88.052 18.689,55.416 26.686,79.76 	"/>
	<g clip-path="url(#SVGID_2_)">
		<defs>
			<polygon id="SVGID_28_" points="51.075,18.706 26.798,26.798 18.707,51.074 			"/>
		</defs>
		<clipPath id="SVGID_29_">
			<use xlink:href="#SVGID_28_"  overflow="visible"/>
		</clipPath>
		<defs>
			<filter id="Adobe_OpacityMaskFilter_5_" filterUnits="userSpaceOnUse" x="18.707" y="18.706" width="32.368" height="32.368">
				<feColorMatrix  type="matrix" values="1 0 0 0 0  0 1 0 0 0  0 0 1 0 0  0 0 0 1 0"/>
			</filter>
		</defs>
		<mask maskUnits="userSpaceOnUse" x="18.707" y="18.706" width="32.368" height="32.368" id="SVGID_30_">
			<g filter="url(#Adobe_OpacityMaskFilter_5_)">
				
					<linearGradient id="SVGID_31_" gradientUnits="userSpaceOnUse" x1="9.765625e-04" y1="147.6958" x2="1.001" y2="147.6958" gradientTransform="matrix(32.3682 0 0 -32.3682 18.6875 4815.5254)">
					<stop  offset="0" style="stop-color:#FFFFFF"/>
					<stop  offset="1" style="stop-color:#4D4D4D"/>
				</linearGradient>
				<rect x="18.707" y="18.706" clip-path="url(#SVGID_29_)" fill="url(#SVGID_31_)" width="32.368" height="32.368"/>
			</g>
		</mask>
		
			<linearGradient id="SVGID_32_" gradientUnits="userSpaceOnUse" x1="0.0015" y1="147.6958" x2="1.0015" y2="147.6958" gradientTransform="matrix(32.3682 0 0 -32.3682 18.6875 4815.5254)">
			<stop  offset="0" style="stop-color:#565656"/>
			<stop  offset="1" style="stop-color:#565656"/>
		</linearGradient>
		
			<rect x="18.707" y="18.706" clip-path="url(#SVGID_29_)" mask="url(#SVGID_30_)" fill="url(#SVGID_32_)" width="32.368" height="32.368"/>
	</g>
	<polygon clip-path="url(#SVGID_2_)" fill="#565656" points="27.264,25.401 51.97,17.165 35.499,0.695 	"/>
	<g clip-path="url(#SVGID_2_)">
		<defs>
			<polygon id="SVGID_33_" points="25.752,80.689 1.604,72.561 33.591,104.549 			"/>
		</defs>
		<clipPath id="SVGID_34_">
			<use xlink:href="#SVGID_33_"  overflow="visible"/>
		</clipPath>
		<defs>
			<filter id="Adobe_OpacityMaskFilter_6_" filterUnits="userSpaceOnUse" x="1.604" y="72.561" width="31.987" height="31.988">
				<feColorMatrix  type="matrix" values="1 0 0 0 0  0 1 0 0 0  0 0 1 0 0  0 0 0 1 0"/>
			</filter>
		</defs>
		<mask maskUnits="userSpaceOnUse" x="1.604" y="72.561" width="31.987" height="31.988" id="SVGID_35_">
			<g filter="url(#Adobe_OpacityMaskFilter_6_)">
				
					<linearGradient id="SVGID_36_" gradientUnits="userSpaceOnUse" x1="4.882812e-04" y1="147.6958" x2="1.0005" y2="147.6958" gradientTransform="matrix(-31.9873 0 0 31.9873 33.5938 -4635.8193)">
					<stop  offset="0" style="stop-color:#FFFFFF"/>
					<stop  offset="1" style="stop-color:#4D4D4D"/>
				</linearGradient>
				<rect x="1.604" y="72.561" clip-path="url(#SVGID_34_)" fill="url(#SVGID_36_)" width="31.987" height="31.989"/>
			</g>
		</mask>
		
			<linearGradient id="SVGID_37_" gradientUnits="userSpaceOnUse" x1="-4.882812e-04" y1="147.6948" x2="0.9995" y2="147.6948" gradientTransform="matrix(-31.9873 0 0 31.9873 33.5781 -4635.8198)">
			<stop  offset="0" style="stop-color:#565656"/>
			<stop  offset="1" style="stop-color:#565656"/>
		</linearGradient>
		
			<rect x="1.604" y="72.561" clip-path="url(#SVGID_34_)" mask="url(#SVGID_35_)" fill="url(#SVGID_37_)" width="31.987" height="31.988"/>
	</g>
	<g clip-path="url(#SVGID_2_)">
		<defs>
			<rect id="SVGID_38_" width="106.351" height="147.696"/>
		</defs>
		<clipPath id="SVGID_39_">
			<use xlink:href="#SVGID_38_"  overflow="visible"/>
		</clipPath>
		<path clip-path="url(#SVGID_39_)" fill="#565656" d="M101.504,121.188c0.109-0.25,0.261-0.469,0.451-0.651
			c0.19-0.186,0.41-0.329,0.662-0.435c0.254-0.105,0.524-0.158,0.807-0.158c0.283,0,0.552,0.053,0.802,0.158
			c0.252,0.105,0.47,0.249,0.657,0.435c0.188,0.183,0.339,0.401,0.449,0.651c0.11,0.251,0.166,0.522,0.166,0.813
			c0,0.3-0.056,0.575-0.166,0.827s-0.262,0.472-0.449,0.658s-0.405,0.331-0.657,0.434c-0.25,0.104-0.519,0.155-0.802,0.155
			c-0.282,0-0.553-0.052-0.807-0.155c-0.252-0.103-0.472-0.247-0.662-0.434s-0.342-0.406-0.451-0.658
			c-0.11-0.252-0.166-0.527-0.166-0.827C101.338,121.71,101.394,121.439,101.504,121.188 M101.845,122.707
			c0.086,0.216,0.207,0.402,0.358,0.562c0.153,0.158,0.334,0.283,0.543,0.373c0.207,0.091,0.435,0.137,0.678,0.137
			c0.238,0,0.462-0.046,0.669-0.137c0.206-0.09,0.387-0.215,0.538-0.373c0.152-0.159,0.273-0.346,0.359-0.562
			c0.088-0.216,0.131-0.451,0.131-0.705c0-0.247-0.043-0.478-0.131-0.691c-0.086-0.214-0.207-0.398-0.359-0.556
			c-0.151-0.156-0.332-0.28-0.538-0.37c-0.207-0.092-0.431-0.136-0.669-0.136c-0.243,0-0.471,0.044-0.678,0.136
			c-0.209,0.09-0.39,0.214-0.543,0.37c-0.151,0.157-0.272,0.342-0.358,0.556c-0.087,0.214-0.13,0.444-0.13,0.691
			C101.715,122.255,101.758,122.491,101.845,122.707 M103.552,120.802c0.286,0,0.5,0.057,0.639,0.171
			c0.138,0.113,0.207,0.286,0.207,0.52c0,0.218-0.062,0.376-0.185,0.478c-0.12,0.102-0.271,0.161-0.452,0.181l0.69,1.066h-0.402
			l-0.657-1.039h-0.399v1.039h-0.377v-2.415H103.552z M103.383,121.874c0.089,0,0.166-0.002,0.24-0.008
			c0.076-0.006,0.146-0.021,0.205-0.048c0.058-0.025,0.104-0.064,0.142-0.118c0.032-0.053,0.053-0.127,0.053-0.225
			c0-0.081-0.017-0.145-0.049-0.193c-0.031-0.047-0.07-0.084-0.121-0.109c-0.049-0.027-0.108-0.044-0.17-0.054
			c-0.067-0.01-0.129-0.014-0.194-0.014h-0.496v0.769H103.383z"/>
		<path clip-path="url(#SVGID_39_)" fill="#565656" d="M17.055,146.902c-1.255,0.528-2.526,0.794-3.806,0.794
			c-2.022,0-3.84-0.353-5.453-1.054c-1.614-0.702-2.975-1.669-4.084-2.902c-1.11-1.231-1.96-2.679-2.551-4.343
			c-0.592-1.664-0.887-3.455-0.887-5.378c0-1.971,0.295-3.802,0.887-5.49c0.591-1.687,1.441-3.16,2.551-4.417
			c1.109-1.256,2.47-2.243,4.084-2.957c1.613-0.714,3.431-1.072,5.453-1.072c1.354,0,2.666,0.204,3.937,0.609
			c1.267,0.407,2.414,1.005,3.437,1.794s1.868,1.763,2.532,2.919c0.666,1.159,1.073,2.49,1.22,3.992H18.83
			c-0.344-1.478-1.011-2.587-1.996-3.326c-0.985-0.739-2.18-1.107-3.585-1.107c-1.307,0-2.417,0.252-3.328,0.757
			c-0.91,0.506-1.65,1.183-2.218,2.033c-0.567,0.85-0.979,1.818-1.238,2.902c-0.259,1.084-0.388,2.205-0.388,3.363
			c0,1.108,0.129,2.187,0.388,3.233c0.259,1.048,0.671,1.992,1.238,2.828c0.568,0.839,1.308,1.51,2.218,2.015
			c0.911,0.507,2.021,0.758,3.328,0.758c1.923,0,3.406-0.485,4.453-1.46c1.048-0.974,1.658-2.384,1.832-4.232h-5.841v-4.325h11.09
			v14.27h-3.699l-0.591-2.995C19.458,145.441,18.312,146.372,17.055,146.902"/>
		<rect x="27.675" y="120.71" clip-path="url(#SVGID_39_)" fill="#565656" width="5.249" height="26.395"/>
		<path clip-path="url(#SVGID_39_)" fill="#565656" d="M35.516,133.408c0.466-1.243,1.132-2.303,1.996-3.179
			c0.862-0.873,1.896-1.551,3.104-2.032c1.207-0.481,2.564-0.721,4.067-0.721c1.502,0,2.864,0.239,4.084,0.721
			c1.219,0.481,2.261,1.159,3.123,2.032c0.863,0.876,1.528,1.936,1.997,3.179c0.47,1.246,0.701,2.632,0.701,4.159
			c0,1.528-0.231,2.909-0.701,4.141c-0.469,1.232-1.133,2.285-1.997,3.161c-0.862,0.875-1.904,1.545-3.123,2.014
			c-1.22,0.468-2.582,0.702-4.084,0.702c-1.503,0-2.86-0.234-4.067-0.702c-1.208-0.469-2.242-1.139-3.104-2.014
			c-0.864-0.876-1.53-1.929-1.996-3.161c-0.468-1.231-0.704-2.612-0.704-4.141C34.812,136.04,35.048,134.654,35.516,133.408
			 M40.284,139.802c0.147,0.729,0.401,1.382,0.757,1.961c0.357,0.579,0.832,1.041,1.423,1.386c0.592,0.345,1.332,0.518,2.219,0.518
			c0.887,0,1.632-0.173,2.237-0.518c0.603-0.345,1.084-0.807,1.441-1.386c0.358-0.579,0.611-1.232,0.756-1.961
			c0.149-0.725,0.224-1.472,0.224-2.235s-0.075-1.515-0.224-2.254c-0.145-0.74-0.398-1.393-0.756-1.96
			c-0.357-0.566-0.838-1.029-1.441-1.386c-0.605-0.357-1.35-0.537-2.237-0.537c-0.887,0-1.627,0.18-2.219,0.537
			c-0.591,0.356-1.066,0.819-1.423,1.386c-0.356,0.567-0.61,1.22-0.757,1.96c-0.148,0.739-0.223,1.49-0.223,2.254
			S40.136,139.078,40.284,139.802"/>
		<path clip-path="url(#SVGID_39_)" fill="#565656" d="M61.387,127.993v2.588h0.074c0.69-0.983,1.522-1.749,2.496-2.291
			s2.088-0.813,3.344-0.813c1.209,0,2.312,0.234,3.308,0.702c1,0.469,1.756,1.295,2.274,2.478c0.565-0.839,1.336-1.578,2.31-2.218
			c0.972-0.643,2.125-0.962,3.455-0.962c1.011,0,1.944,0.124,2.81,0.369c0.862,0.247,1.601,0.64,2.217,1.183
			c0.615,0.544,1.097,1.252,1.44,2.126c0.345,0.876,0.519,1.93,0.519,3.16v12.791h-5.248v-10.832c0-0.64-0.024-1.243-0.073-1.811
			c-0.05-0.566-0.187-1.061-0.406-1.479c-0.223-0.418-0.549-0.751-0.981-0.997c-0.43-0.246-1.016-0.37-1.756-0.37
			c-0.737,0-1.336,0.143-1.791,0.425c-0.457,0.284-0.812,0.653-1.071,1.109c-0.261,0.456-0.433,0.974-0.519,1.553
			s-0.129,1.164-0.129,1.756v10.646H68.41v-10.722c0-0.565-0.013-1.125-0.039-1.681c-0.021-0.555-0.127-1.064-0.312-1.534
			c-0.185-0.468-0.492-0.844-0.925-1.128c-0.432-0.282-1.065-0.425-1.903-0.425c-0.246,0-0.574,0.055-0.979,0.166
			c-0.408,0.111-0.802,0.321-1.183,0.629c-0.383,0.308-0.709,0.752-0.979,1.331c-0.272,0.579-0.407,1.338-0.407,2.272v11.091h-5.248
			v-19.112H61.387z"/>
		<path clip-path="url(#SVGID_39_)" fill="#565656" d="M93.824,142.521c0.788,0.764,1.922,1.146,3.401,1.146
			c1.06,0,1.971-0.265,2.733-0.795c0.767-0.529,1.233-1.091,1.406-1.682h4.62c-0.739,2.291-1.873,3.931-3.399,4.917
			c-1.53,0.984-3.377,1.478-5.547,1.478c-1.502,0-2.858-0.241-4.065-0.721c-1.205-0.48-2.231-1.164-3.067-2.051
			c-0.837-0.888-1.486-1.947-1.941-3.18c-0.457-1.232-0.684-2.587-0.684-4.066c0-1.429,0.235-2.761,0.702-3.991
			c0.468-1.232,1.134-2.299,1.996-3.197c0.863-0.901,1.892-1.608,3.088-2.126c1.195-0.518,2.519-0.776,3.972-0.776
			c1.627,0,3.043,0.314,4.252,0.942c1.207,0.628,2.199,1.473,2.978,2.532c0.774,1.06,1.336,2.268,1.681,3.622
			c0.344,1.355,0.467,2.773,0.37,4.251H92.531C92.604,140.525,93.035,141.756,93.824,142.521 M99.758,132.466
			c-0.629-0.69-1.586-1.036-2.864-1.036c-0.84,0-1.535,0.144-2.09,0.427c-0.556,0.282-0.996,0.635-1.33,1.052
			c-0.334,0.42-0.569,0.864-0.701,1.332c-0.137,0.468-0.217,0.887-0.241,1.256h8.538
			C100.822,134.166,100.386,133.157,99.758,132.466"/>
	</g>
</g>
</svg>
