<?xml version="1.0" encoding="utf-8"?>
<!-- Generator: Adobe Illustrator 15.0.2, SVG Export Plug-In . SVG Version: 6.00 Build 0)  -->
<!DOCTYPE svg PUBLIC "-//W3C//DTD SVG 1.1//EN" "http://www.w3.org/Graphics/SVG/1.1/DTD/svg11.dtd">
<svg version="1.1" id="Layer_1" xmlns="http://www.w3.org/2000/svg" xmlns:xlink="http://www.w3.org/1999/xlink" x="0px" y="0px"
	 width="113.39px" height="113.39px" viewBox="0 0 113.39 113.39" enable-background="new 0 0 113.39 113.39" xml:space="preserve">
<g>
	<linearGradient id="SVGID_1_" gradientUnits="userSpaceOnUse" x1="39.0562" y1="9.0029" x2="73.9697" y2="9.0029">
		<stop  offset="0" style="stop-color:#4582C3"/>
		<stop  offset="1" style="stop-color:#4582C3;stop-opacity:0.3"/>
	</linearGradient>
	<polygon fill="url(#SVGID_1_)" points="73.97,0.211 39.056,0.211 56.64,17.795 	"/>
	<linearGradient id="SVGID_2_" gradientUnits="userSpaceOnUse" x1="0.5054" y1="42.4741" x2="27.0029" y2="42.4741">
		<stop  offset="0" style="stop-color:#4582C3"/>
		<stop  offset="1" style="stop-color:#4582C3;stop-opacity:0.3"/>
	</linearGradient>
	<polygon fill="url(#SVGID_2_)" points="27.003,29.225 0.505,38.058 18.17,55.724 	"/>
	<linearGradient id="SVGID_3_" gradientUnits="userSpaceOnUse" x1="0.5015" y1="71.3193" x2="26.8862" y2="71.3193">
		<stop  offset="0" style="stop-color:#4582C3"/>
		<stop  offset="1" style="stop-color:#4582C3;stop-opacity:0.3"/>
	</linearGradient>
	<polygon fill="url(#SVGID_3_)" points="18.167,58.047 0.501,75.711 26.886,84.592 	"/>
	<polygon fill="#4582C3" points="55.34,95.49 28.858,86.578 37.546,113.027 	"/>
	<polygon fill="#4582C3" points="95.448,95.083 113.037,112.67 113.037,77.495 	"/>
	<linearGradient id="SVGID_4_" gradientUnits="userSpaceOnUse" x1="57.7461" y1="85.7285" x2="93.0566" y2="85.7285">
		<stop  offset="0" style="stop-color:#4582C3"/>
		<stop  offset="1" style="stop-color:#4582C3;stop-opacity:0.3"/>
	</linearGradient>
	<polygon fill="url(#SVGID_4_)" points="57.746,94.59 93.057,94.461 75.465,76.868 	"/>
	<linearGradient id="SVGID_5_" gradientUnits="userSpaceOnUse" x1="93.0439" y1="104.5049" x2="58.0127" y2="104.5049">
		<stop  offset="0" style="stop-color:#4582C3"/>
		<stop  offset="1" style="stop-color:#4582C3;stop-opacity:0.3"/>
	</linearGradient>
	<polygon fill="url(#SVGID_5_)" points="75.465,113.296 93.044,95.714 58.013,95.842 	"/>
	<polygon fill="#4582C3" points="57.746,18.673 93.057,18.545 75.465,0.951 	"/>
	<polygon fill="#4582C3" points="17.558,56.883 -0.029,39.296 -0.029,74.47 	"/>
	<polygon fill="#414142" points="75.465,75.982 75.465,75.982 75.465,75.983 	"/>
	<polygon fill="#4582C3" points="38.795,113.556 73.951,113.556 56.501,96.104 	"/>
	<polygon fill="#4582C3" points="112.149,76.61 76.979,76.609 94.564,94.196 	"/>
	<polygon fill="#4582C3" points="1.665,36.349 27.499,27.74 36.109,1.904 	"/>
	<polygon fill="#4582C3" points="54.588,93.915 19.86,59.185 28.37,85.091 	"/>
	<linearGradient id="SVGID_6_" gradientUnits="userSpaceOnUse" x1="19.8784" y1="37.3408" x2="54.3232" y2="37.3408">
		<stop  offset="0" style="stop-color:#4582C3"/>
		<stop  offset="1" style="stop-color:#4582C3;stop-opacity:0.3"/>
	</linearGradient>
	<polygon fill="url(#SVGID_6_)" points="54.323,20.118 28.488,28.729 19.878,54.563 	"/>
	<polygon fill="#4582C3" points="55.275,18.479 37.748,0.951 28.983,27.243 	"/>
	<linearGradient id="SVGID_7_" gradientUnits="userSpaceOnUse" x1="35.7173" y1="94.4482" x2="1.6772" y2="94.4482">
		<stop  offset="0" style="stop-color:#4582C3"/>
		<stop  offset="1" style="stop-color:#4582C3;stop-opacity:0.3"/>
	</linearGradient>
	<polygon fill="url(#SVGID_7_)" points="27.375,86.079 1.677,77.429 35.717,111.469 	"/>
</g>
</svg>
