<?xml version="1.0" encoding="utf-8"?>
<!-- Generator: Adobe Illustrator 16.2.1, SVG Export Plug-In . SVG Version: 6.00 Build 0)  -->
<!DOCTYPE svg PUBLIC "-//W3C//DTD SVG 1.1//EN" "http://www.w3.org/Graphics/SVG/1.1/DTD/svg11.dtd">
<svg version="1.1" id="Layer_1" xmlns="http://www.w3.org/2000/svg" xmlns:xlink="http://www.w3.org/1999/xlink" x="0px" y="0px"
	 width="100%" height="100%" viewBox="0 0 50 50" enable-background="new 0 0 50 50" xml:space="preserve">
<path fill="#FFFFFF" d="M10.924,14.251c-0.046-0.156,0.029-0.289,0.015-0.434c-0.024-0.04-0.047-0.079-0.07-0.119
	c0.012-0.01,0.026-0.016,0.04-0.025c-0.018-0.061-0.035-0.121-0.053-0.182c0.014-0.007,0.028-0.015,0.042-0.023
	c-0.024-0.04-0.047-0.08-0.071-0.119c0.013-0.009,0.026-0.015,0.04-0.024c-0.019-0.062-0.035-0.122-0.054-0.183
	c0.014-0.007,0.028-0.016,0.042-0.021c-0.024-0.04-0.047-0.08-0.07-0.121c0.014-0.008,0.028-0.016,0.04-0.023
	c-0.015-0.026-0.03-0.052-0.046-0.08c0.013-0.008,0.026-0.015,0.04-0.023c-0.019-0.061-0.035-0.122-0.054-0.184
	c0.014-0.007,0.027-0.015,0.041-0.022c-0.024-0.04-0.047-0.08-0.07-0.119c0.014-0.009,0.026-0.016,0.04-0.024
	c-0.017-0.06-0.035-0.121-0.053-0.182c0.014-0.007,0.027-0.015,0.041-0.023c-0.023-0.04-0.047-0.079-0.07-0.119
	c0.014-0.009,0.027-0.015,0.04-0.024c-0.017-0.062-0.035-0.123-0.052-0.182c0.012-0.008,0.025-0.015,0.039-0.023
	c-0.022-0.04-0.047-0.08-0.07-0.119c0.014-0.009,0.027-0.015,0.04-0.024c-0.017-0.061-0.035-0.122-0.052-0.182
	c0.012-0.007,0.026-0.017,0.04-0.022c-0.023-0.04-0.047-0.08-0.07-0.121c0.014-0.008,0.027-0.016,0.042-0.023
	c-0.019-0.061-0.037-0.122-0.054-0.183c0.014-0.007,0.027-0.016,0.04-0.021c-0.022-0.04-0.046-0.082-0.07-0.121
	c0.014-0.007,0.027-0.015,0.042-0.023c-0.017-0.027-0.032-0.053-0.047-0.08c0.014-0.009,0.027-0.015,0.041-0.024
	c-0.018-0.06-0.036-0.121-0.053-0.182c0.014-0.008,0.026-0.015,0.04-0.023c-0.022-0.04-0.046-0.079-0.07-0.119
	c0.014-0.009,0.028-0.015,0.042-0.024c-0.019-0.061-0.037-0.121-0.054-0.182c0.014-0.008,0.026-0.015,0.04-0.023
	c-0.023-0.04-0.046-0.08-0.07-0.119c0.014-0.009,0.027-0.015,0.041-0.024c-0.019-0.061-0.035-0.122-0.054-0.183
	c0.014-0.006,0.028-0.016,0.04-0.021c-0.017-0.062-0.035-0.123-0.052-0.184c0.019-0.029,0.038-0.058,0.057-0.085
	c-0.017-0.061-0.035-0.122-0.054-0.183c0.03-0.07,0.061-0.141,0.092-0.213c-0.016-0.025-0.031-0.053-0.046-0.079
	c0.035-0.092,0.072-0.184,0.108-0.275c-0.003-0.035-0.004-0.069-0.007-0.102c0.027-0.016,0.055-0.031,0.081-0.046
	c0.005-0.057,0.008-0.111,0.011-0.167c0.027-0.015,0.055-0.032,0.081-0.047c-0.001-0.033-0.004-0.067-0.006-0.102
	c0.046-0.044,0.092-0.087,0.137-0.133c-0.001-0.033-0.003-0.067-0.006-0.102c0.042-0.023,0.081-0.046,0.123-0.069
	c-0.01-0.014-0.017-0.027-0.024-0.04c0.027-0.015,0.053-0.031,0.081-0.046c-0.007-0.015-0.015-0.027-0.023-0.04
	c0.04-0.024,0.082-0.047,0.121-0.071c-0.008-0.012-0.015-0.027-0.023-0.04c0.04-0.022,0.081-0.046,0.121-0.07
	c-0.008-0.012-0.016-0.026-0.023-0.04c0.054-0.03,0.107-0.061,0.162-0.092c-0.007-0.014-0.017-0.027-0.024-0.04
	c0.067-0.04,0.136-0.076,0.203-0.116c-0.009-0.013-0.017-0.028-0.024-0.04c1.009-0.578,2.021-1.155,3.03-1.732
	c0.99-0.565,2.116-1.335,2.952-1.315c0.029,0.021,0.058,0.039,0.087,0.057c0.062-0.017,0.124-0.035,0.185-0.052
	c0.05,0.024,0.101,0.049,0.151,0.073c0.028-0.015,0.054-0.03,0.082-0.046c0.05,0.024,0.101,0.049,0.151,0.074
	c0.119,0.02,0.24,0.04,0.359,0.061c0.015,0.026,0.032,0.052,0.047,0.08c0.057,0.003,0.112,0.006,0.168,0.009
	c0.016,0.027,0.031,0.055,0.048,0.081c0.033-0.002,0.068-0.005,0.104-0.006c0.073,0.064,0.146,0.128,0.22,0.192
	c0.014-0.008,0.027-0.016,0.041-0.023c0.015,0.027,0.031,0.053,0.047,0.08c0.012-0.007,0.026-0.016,0.04-0.023
	c0.073,0.066,0.148,0.13,0.221,0.194c0.014-0.009,0.026-0.016,0.04-0.024c0.024,0.04,0.047,0.079,0.07,0.121
	c0.014-0.008,0.027-0.017,0.041-0.023c0.044,0.045,0.088,0.09,0.133,0.136c0.014-0.007,0.027-0.015,0.041-0.023
	c0.023,0.04,0.047,0.08,0.071,0.119c0.014-0.007,0.027-0.015,0.04-0.023c0.046,0.046,0.09,0.09,0.134,0.136
	c0.014-0.006,0.027-0.015,0.04-0.021c0.024,0.04,0.047,0.08,0.07,0.119c0.014-0.007,0.027-0.015,0.041-0.024
	c0.045,0.046,0.089,0.092,0.135,0.138c0.014-0.008,0.025-0.016,0.039-0.023c0.023,0.04,0.047,0.079,0.071,0.119
	c0.014-0.008,0.027-0.016,0.04-0.023c0.046,0.046,0.09,0.092,0.134,0.137c0.014-0.009,0.027-0.015,0.041-0.024
	c0.016,0.027,0.031,0.053,0.046,0.079c0.014-0.006,0.028-0.015,0.042-0.021c0.022,0.04,0.046,0.08,0.07,0.119
	c0.012-0.009,0.026-0.015,0.04-0.024c0.044,0.046,0.09,0.092,0.134,0.137c0.014-0.007,0.026-0.015,0.04-0.022
	c0.024,0.04,0.047,0.079,0.07,0.119c0.014-0.008,0.028-0.015,0.042-0.023c0.044,0.046,0.089,0.092,0.133,0.137
	c0.014-0.009,0.028-0.017,0.042-0.024c0.023,0.04,0.046,0.08,0.07,0.12c0.014-0.006,0.026-0.016,0.04-0.021
	c0.044,0.044,0.09,0.09,0.134,0.136c0.014-0.007,0.028-0.017,0.04-0.023c0.024,0.04,0.048,0.08,0.071,0.119
	c0.014-0.007,0.027-0.015,0.041-0.023c0.044,0.044,0.088,0.09,0.134,0.136c0.013-0.008,0.026-0.016,0.04-0.023
	c0.023,0.04,0.047,0.08,0.07,0.121c0.014-0.009,0.028-0.015,0.04-0.024c0.075,0.064,0.148,0.128,0.222,0.192
	c0.014-0.006,0.027-0.016,0.041-0.021c0.044,0.046,0.089,0.09,0.133,0.136c0.035-0.002,0.07-0.005,0.104-0.008
	c0.093,0.037,0.187,0.074,0.28,0.109c0.027-0.016,0.053-0.032,0.081-0.048c0.007,0.016,0.015,0.027,0.022,0.041
	c0.028-0.017,0.053-0.032,0.081-0.047C22.984,7.586,22.992,7.6,23,7.612c0.028-0.015,0.055-0.031,0.081-0.046
	c0.007,0.014,0.015,0.028,0.024,0.04c0.026-0.015,0.054-0.03,0.079-0.045c0.01,0.014,0.017,0.027,0.025,0.04
	c0.026-0.016,0.053-0.03,0.081-0.046c0.007,0.014,0.015,0.027,0.022,0.04c0.028-0.016,0.054-0.031,0.082-0.046
	c0.007,0.012,0.015,0.027,0.022,0.04c0.063-0.018,0.124-0.035,0.185-0.052c0.008,0.012,0.017,0.026,0.025,0.04
	c0.075-0.024,0.149-0.05,0.224-0.077c0.029,0.019,0.058,0.039,0.087,0.058c0.271-0.03,0.541-0.061,0.811-0.091
	c0.029,0.019,0.058,0.038,0.087,0.058c0.061-0.018,0.124-0.036,0.185-0.053c0.029,0.02,0.058,0.039,0.087,0.057
	c0.096-0.02,0.192-0.04,0.289-0.058c0.029,0.019,0.058,0.037,0.087,0.055c0.027-0.015,0.055-0.03,0.082-0.046
	c0.028,0.019,0.058,0.039,0.086,0.059c0.027-0.016,0.056-0.031,0.082-0.048c0.028,0.021,0.058,0.039,0.086,0.057
	c0.062-0.017,0.125-0.033,0.186-0.052c0.031,0.019,0.061,0.037,0.09,0.057c0.025-0.016,0.053-0.03,0.078-0.046
	c0.051,0.024,0.102,0.049,0.151,0.073c0.026-0.015,0.056-0.03,0.081-0.047c0.029,0.02,0.059,0.04,0.088,0.058
	c0.049-0.009,0.097-0.02,0.146-0.031c0.006,0.014,0.014,0.027,0.021,0.04c0.026-0.016,0.055-0.031,0.083-0.046
	c0.049,0.024,0.1,0.049,0.148,0.073c0.027-0.016,0.055-0.03,0.082-0.046c0.006,0.014,0.016,0.027,0.021,0.04
	c0.098-0.019,0.191-0.04,0.29-0.058c0.009,0.012,0.016,0.026,0.024,0.04c0.237-0.043,0.814-0.526,0.922-0.634
	C28.35,6.9,28.473,6.83,28.594,6.76c-0.009-0.012-0.015-0.024-0.023-0.04c0.106-0.061,0.217-0.123,0.322-0.184
	c-0.008-0.014-0.015-0.027-0.022-0.04c0.235-0.153,0.471-0.306,0.706-0.457c-0.01-0.014-0.016-0.026-0.025-0.04
	c0.107-0.063,0.219-0.125,0.324-0.185c-0.009-0.012-0.016-0.028-0.023-0.04c0.121-0.071,0.244-0.139,0.362-0.208
	c0.771-0.782,1.81-0.952,2.562-0.878c0.24,0.075,0.485,0.149,0.728,0.224c0.017,0.028,0.03,0.054,0.045,0.08
	c0.034-0.001,0.071-0.003,0.104-0.006c0.016,0.027,0.031,0.054,0.046,0.08c0.036-0.002,0.069-0.003,0.104-0.006
	c0.076,0.064,0.15,0.128,0.224,0.194c0.033-0.002,0.07-0.005,0.104-0.008c0.073,0.064,0.146,0.13,0.22,0.194
	c0.037-0.002,0.07-0.005,0.104-0.007c0.075,0.064,0.149,0.128,0.223,0.194c0.034-0.003,0.07-0.006,0.104-0.008
	c0.016,0.026,0.029,0.054,0.045,0.081c0.016-0.009,0.027-0.017,0.043-0.024c0.016,0.027,0.029,0.053,0.046,0.08
	c0.033-0.002,0.069-0.003,0.104-0.006c0.073,0.064,0.146,0.128,0.219,0.193c0.037-0.001,0.072-0.004,0.104-0.007
	c0.076,0.066,0.15,0.13,0.224,0.194c0.033-0.001,0.07-0.004,0.104-0.006c0.073,0.064,0.146,0.128,0.22,0.194
	c0.037-0.003,0.07-0.006,0.104-0.008c0.045,0.046,0.092,0.092,0.134,0.136c0.037-0.001,0.07-0.003,0.104-0.006
	c0.076,0.064,0.15,0.129,0.225,0.193c0.033-0.001,0.07-0.004,0.104-0.006c0.073,0.064,0.147,0.128,0.221,0.194
	c0.037-0.003,0.07-0.006,0.104-0.008c0.018,0.026,0.033,0.054,0.049,0.081c0.012-0.009,0.027-0.017,0.039-0.024
	c0.016,0.027,0.031,0.053,0.047,0.08c0.016-0.007,0.027-0.016,0.043-0.021c0.016,0.024,0.03,0.052,0.045,0.079
	c0.035-0.003,0.072-0.004,0.104-0.006c0.017,0.026,0.03,0.052,0.045,0.08c0.017-0.01,0.028-0.016,0.043-0.024
	c0.017,0.027,0.03,0.055,0.046,0.081c0.033-0.001,0.07-0.004,0.104-0.008c0.073,0.066,0.146,0.13,0.22,0.194
	c0.036-0.001,0.07-0.004,0.104-0.006c0.076,0.064,0.15,0.128,0.225,0.194c0.033-0.003,0.07-0.006,0.104-0.008
	c0.017,0.026,0.03,0.053,0.047,0.081c0.016-0.009,0.026-0.015,0.043-0.024c0.043,0.045,0.088,0.091,0.131,0.138
	c0.016-0.01,0.027-0.016,0.043-0.025c0.058,0.074,0.119,0.146,0.181,0.217c0.013-0.008,0.027-0.016,0.039-0.023
	c0.435,0.343,0.853,1.263,0.901,1.722c-0.012,0.007-0.027,0.015-0.039,0.022c0.018,0.061,0.035,0.123,0.052,0.182
	c-0.013,0.01-0.024,0.017-0.04,0.025c0.012,0.024,0.025,0.05,0.041,0.077c-0.02,0.029-0.036,0.058-0.055,0.085
	c0.015,0.062,0.033,0.123,0.052,0.184c-0.024,0.049-0.049,0.099-0.073,0.15c0.016,0.026,0.03,0.052,0.047,0.079
	c-0.025,0.049-0.05,0.1-0.074,0.15c0.016,0.026,0.03,0.052,0.047,0.079c-0.024,0.049-0.051,0.098-0.073,0.148
	c0.015,0.026,0.03,0.054,0.045,0.081c-0.019,0.027-0.039,0.057-0.058,0.085c0.015,0.027,0.029,0.052,0.045,0.08
	c-0.023,0.049-0.049,0.099-0.073,0.15c0.017,0.025,0.03,0.052,0.047,0.079c-0.024,0.049-0.049,0.099-0.074,0.149
	c0.017,0.026,0.031,0.052,0.048,0.08c-0.025,0.049-0.05,0.1-0.074,0.15c0.016,0.026,0.031,0.052,0.047,0.08
	c-0.021,0.027-0.037,0.057-0.057,0.085c0.01,0.047,0.02,0.095,0.028,0.144c-0.024,0.049-0.05,0.098-0.073,0.148
	c0.016,0.025,0.03,0.053,0.045,0.079c-0.023,0.05-0.049,0.1-0.072,0.149c0.009,0.047,0.019,0.095,0.029,0.143
	c-0.021,0.029-0.039,0.058-0.058,0.085c0.015,0.027,0.03,0.055,0.046,0.081c-0.02,0.029-0.037,0.056-0.059,0.085
	c0.019,0.026,0.033,0.053,0.049,0.081c-0.021,0.027-0.039,0.057-0.059,0.086c0.01,0.047,0.02,0.095,0.03,0.142
	c-0.022,0.051-0.051,0.1-0.075,0.15c0.016,0.026,0.032,0.054,0.049,0.08c-0.023,0.05-0.053,0.099-0.076,0.148
	c0.016,0.028,0.033,0.055,0.049,0.082c-0.023,0.05-0.053,0.099-0.076,0.148c-0.021,0.24-0.034,0.818,0.277,1.12
	c0.016-0.008,0.027-0.015,0.043-0.023c0.379,0.617,0.758,1.234,1.14,1.852c0.146,0.254,0.296,0.506,0.442,0.758
	c-0.012,0.009-0.023,0.015-0.039,0.024c0.086,0.146,0.171,0.292,0.257,0.438c-0.013,0.009-0.024,0.017-0.039,0.024
	c0.122,0.177,0.247,0.357,0.369,0.535c0.012-0.008,0.024-0.016,0.039-0.023c0.024,0.042,0.047,0.081,0.069,0.121
	c0.034-0.003,0.071-0.004,0.104-0.006c0.017,0.026,0.03,0.052,0.046,0.08c0.036-0.003,0.07-0.004,0.104-0.006
	c0.02,0.026,0.033,0.052,0.049,0.08c0.056,0.003,0.111,0.006,0.169,0.009c0.016,0.027,0.03,0.055,0.046,0.081
	c0.033-0.002,0.07-0.005,0.104-0.008c0.016,0.027,0.031,0.055,0.047,0.081c0.059,0.003,0.112,0.007,0.168,0.01
	c0.02,0.026,0.033,0.052,0.049,0.08c0.056,0.003,0.109,0.006,0.168,0.011c0.017,0.026,0.031,0.054,0.047,0.08
	c0.033-0.001,0.07-0.004,0.104-0.006c0.037,0.032,0.073,0.064,0.11,0.096c0.058,0.003,0.112,0.008,0.168,0.011
	c0.019,0.026,0.033,0.054,0.049,0.08c0.033-0.001,0.067-0.005,0.104-0.006c0.035,0.032,0.072,0.064,0.109,0.096
	c0.055,0.003,0.112,0.008,0.168,0.011c0.016,0.026,0.03,0.053,0.047,0.081c0.058,0.003,0.111,0.006,0.168,0.009
	c0.015,0.028,0.029,0.054,0.049,0.08c0.033-0.001,0.065-0.003,0.104-0.006c0.016,0.028,0.031,0.054,0.047,0.08
	c0.033-0.001,0.069-0.003,0.104-0.006c0.037,0.034,0.074,0.064,0.111,0.098c0.058,0.003,0.111,0.006,0.166,0.009
	c0.017,0.028,0.033,0.055,0.049,0.082c0.057,0.003,0.11,0.007,0.17,0.011c0.015,0.025,0.029,0.052,0.045,0.079
	c0.056,0.003,0.113,0.006,0.169,0.011c0.015,0.026,0.028,0.053,0.045,0.08c0.06,0.003,0.112,0.007,0.169,0.01
	c0.036,0.032,0.072,0.064,0.109,0.097c0.037-0.002,0.069-0.005,0.105-0.006c0.016,0.026,0.031,0.054,0.047,0.08
	c0.033-0.001,0.07-0.004,0.104-0.006c0.047,0.046,0.09,0.09,0.135,0.136c0.033-0.002,0.07-0.003,0.104-0.006
	c0.017,0.027,0.03,0.054,0.045,0.08c0.017-0.006,0.028-0.015,0.041-0.021c0.019,0.026,0.033,0.052,0.049,0.08
	c0.013-0.009,0.027-0.016,0.039-0.024c0.024,0.04,0.047,0.08,0.07,0.121c0.014-0.008,0.028-0.017,0.04-0.023
	c0.023,0.04,0.05,0.079,0.07,0.119c0.017-0.008,0.026-0.016,0.039-0.023c0.024,0.04,0.05,0.079,0.071,0.119
	c0.015-0.008,0.026-0.016,0.043-0.022c0.035,0.067,0.076,0.132,0.115,0.198c0.442,0.414,0.672,1.209,0.688,1.631
	c-0.016,0.009-0.027,0.016-0.04,0.024c0.017,0.026,0.03,0.052,0.046,0.08c-0.012,0.008-0.027,0.016-0.039,0.022
	c0.016,0.026,0.03,0.054,0.045,0.08c-0.012,0.008-0.027,0.017-0.039,0.023c0.016,0.027,0.03,0.053,0.047,0.079
	c-0.02,0.031-0.037,0.058-0.06,0.087c0.021,0.097,0.04,0.191,0.062,0.286c-0.019,0.029-0.039,0.058-0.059,0.085
	c0.02,0.061,0.037,0.122,0.053,0.183c-0.019,0.029-0.037,0.058-0.056,0.085c0.017,0.028,0.03,0.053,0.046,0.08
	c-0.012,0.009-0.027,0.015-0.039,0.024c0.016,0.026,0.03,0.052,0.045,0.08c-0.012,0.008-0.027,0.015-0.039,0.023
	c0.016,0.026,0.03,0.053,0.047,0.079c-0.02,0.029-0.037,0.058-0.06,0.087c0.021,0.094,0.04,0.189,0.062,0.284
	c-0.019,0.029-0.039,0.058-0.059,0.085c0.021,0.096,0.04,0.192,0.062,0.287c-0.021,0.028-0.041,0.059-0.059,0.086
	c0.016,0.028,0.03,0.053,0.045,0.08c-0.012,0.009-0.027,0.015-0.039,0.024c0.016,0.026,0.03,0.052,0.047,0.08
	c-0.02,0.027-0.037,0.058-0.06,0.085c0.021,0.094,0.04,0.189,0.062,0.286c-0.019,0.029-0.039,0.057-0.059,0.087
	c0.021,0.095,0.04,0.189,0.062,0.284c-0.021,0.029-0.041,0.058-0.059,0.087c0.018,0.095,0.039,0.188,0.059,0.286
	c-0.02,0.027-0.037,0.057-0.056,0.084c0.015,0.062,0.033,0.123,0.052,0.185c-0.019,0.026-0.039,0.058-0.059,0.085
	c0.021,0.096,0.04,0.189,0.062,0.286c-0.021,0.028-0.041,0.058-0.059,0.086c0.016,0.024,0.03,0.054,0.045,0.081
	c-0.012,0.006-0.027,0.016-0.039,0.021c0.016,0.026,0.03,0.055,0.047,0.078c-0.014,0.01-0.025,0.017-0.041,0.025
	c0.016,0.023,0.031,0.051,0.047,0.079c-0.02,0.026-0.037,0.058-0.056,0.085c0.019,0.095,0.04,0.189,0.058,0.287
	c-0.018,0.027-0.037,0.056-0.058,0.086c0.019,0.062,0.036,0.122,0.056,0.18c-0.016,0.01-0.027,0.02-0.043,0.024
	c0.012,0.05,0.021,0.095,0.029,0.144c-0.018,0.028-0.035,0.059-0.058,0.086c0.019,0.027,0.034,0.053,0.049,0.079
	c-0.03,0.07-0.062,0.142-0.093,0.214c0.017,0.025,0.031,0.053,0.047,0.08c-0.012,0.006-0.027,0.016-0.04,0.021
	c-0.002,0.055-0.007,0.109-0.013,0.164c-0.023,0.019-0.053,0.033-0.08,0.05c-0.008,0.075-0.018,0.151-0.026,0.229
	c-0.026,0.016-0.056,0.03-0.079,0.045c-0.006,0.057-0.009,0.11-0.012,0.166c-0.047,0.043-0.092,0.088-0.139,0.131
	c0.006,0.017,0.016,0.027,0.021,0.039c-0.062,0.074-0.128,0.147-0.193,0.221c0.008,0.013,0.018,0.025,0.022,0.04
	c-0.039,0.021-0.079,0.046-0.122,0.069c0.01,0.013,0.02,0.025,0.023,0.039c-0.039,0.021-0.078,0.047-0.121,0.068
	c-0.119,0.145-0.498,0.534-0.775,0.604c-0.01-0.012-0.016-0.023-0.025-0.039c-0.121,0.07-0.24,0.141-0.363,0.209
	c-0.008-0.014-0.014-0.025-0.023-0.041c-0.117,0.07-0.24,0.141-0.363,0.207c-0.006-0.012-0.016-0.023-0.021-0.039
	c-0.122,0.07-0.244,0.142-0.363,0.207c-0.01-0.012-0.016-0.022-0.024-0.039c-0.106,0.062-0.217,0.123-0.323,0.188
	c-0.007-0.016-0.015-0.027-0.021-0.04c-0.367,0.171-0.732,0.347-1.101,0.521c-0.006-0.014-0.017-0.028-0.021-0.04
	c-0.123,0.069-0.246,0.138-0.363,0.208c-0.01-0.012-0.016-0.027-0.024-0.04c-0.122,0.069-0.241,0.138-0.362,0.208
	c-0.011-0.014-0.017-0.027-0.025-0.04c-0.105,0.062-0.215,0.123-0.32,0.187c0.006,0.014,0.016,0.024,0.021,0.04
	c-0.086,0.067-0.172,0.134-0.26,0.201c0.002,0.033,0.006,0.067,0.006,0.103c-0.024,0.016-0.053,0.029-0.08,0.045
	c0.004,0.037,0.004,0.07,0.007,0.104c-0.027,0.016-0.056,0.03-0.079,0.045c0,0.035,0.003,0.07,0.006,0.104
	c-0.027,0.017-0.055,0.031-0.082,0.047c-0.004,0.056-0.006,0.109-0.01,0.165c-0.027,0.016-0.055,0.03-0.082,0.046
	c0.003,0.037,0.006,0.07,0.006,0.104c-0.029,0.037-0.064,0.073-0.098,0.11c0.009,0.013,0.019,0.026,0.023,0.039
	c-0.027,0.017-0.055,0.03-0.08,0.047c0,0.033,0.004,0.065,0.006,0.104c-0.033,0.035-0.065,0.069-0.097,0.105
	c0.007,0.016,0.015,0.027,0.021,0.04c-0.045,0.046-0.09,0.089-0.137,0.136c0.004,0.032,0.006,0.065,0.006,0.1
	c-0.033,0.037-0.063,0.074-0.098,0.109c0.01,0.016,0.016,0.027,0.024,0.041c-0.046,0.045-0.093,0.088-0.138,0.135
	c0,0.033,0.004,0.065,0.006,0.101c-0.066,0.073-0.131,0.146-0.194,0.221c0,0.033,0.002,0.066,0.006,0.101
	c-0.026,0.016-0.056,0.031-0.083,0.046c0.01,0.016,0.016,0.026,0.023,0.043c-0.026,0.016-0.055,0.03-0.078,0.047
	c0.006,0.012,0.015,0.022,0.021,0.039c-0.026,0.016-0.055,0.03-0.079,0.046c0.006,0.012,0.017,0.027,0.021,0.039
	c-0.023,0.016-0.053,0.031-0.08,0.047c0.007,0.012,0.016,0.027,0.025,0.039c-0.027,0.016-0.056,0.031-0.084,0.046
	c0.01,0.017,0.017,0.026,0.024,0.04c-0.026,0.016-0.055,0.03-0.082,0.046c0.009,0.015,0.017,0.027,0.024,0.039
	c-0.027,0.017-0.055,0.033-0.08,0.049c0.007,0.013,0.016,0.025,0.021,0.04c-0.027,0.016-0.052,0.03-0.08,0.047
	c0,0.032,0.004,0.066,0.008,0.101c-0.041,0.024-0.084,0.049-0.123,0.069c0.01,0.014,0.016,0.027,0.023,0.041
	c-0.064,0.072-0.131,0.146-0.195,0.219c0.006,0.014,0.017,0.024,0.021,0.041c-0.023,0.015-0.052,0.029-0.079,0.046
	c0.009,0.012,0.015,0.026,0.024,0.038c-0.062,0.054-0.12,0.104-0.182,0.156c0.004,0.034,0.006,0.067,0.006,0.102
	c-0.026,0.016-0.051,0.031-0.078,0.049c0.006,0.014,0.016,0.023,0.023,0.04c-0.027,0.017-0.056,0.03-0.083,0.046
	c0.011,0.014,0.017,0.023,0.025,0.04c-0.031,0.069-0.062,0.14-0.093,0.21c0.017,0.027,0.031,0.055,0.045,0.08
	c-0.018,0.029-0.035,0.059-0.057,0.085c0.016,0.026,0.033,0.056,0.049,0.083c-0.016,0.006-0.027,0.016-0.043,0.021
	c0.016,0.027,0.033,0.056,0.049,0.08c-0.016,0.008-0.026,0.016-0.039,0.023c0.021,0.039,0.046,0.08,0.066,0.119
	c-0.012,0.01-0.025,0.016-0.039,0.023c0.019,0.062,0.035,0.119,0.055,0.181c-0.016,0.01-0.026,0.016-0.043,0.024
	c0.023,0.039,0.05,0.08,0.07,0.118c-0.013,0.011-0.025,0.017-0.041,0.025c0.016,0.022,0.031,0.052,0.051,0.079
	c-0.017,0.007-0.028,0.016-0.043,0.021c0.019,0.062,0.035,0.123,0.055,0.185c-0.016,0.009-0.027,0.016-0.042,0.023
	c0.022,0.039,0.049,0.079,0.069,0.119c-0.013,0.006-0.024,0.016-0.039,0.021c0.019,0.061,0.035,0.121,0.055,0.183
	c-0.016,0.01-0.027,0.017-0.043,0.024c0.023,0.039,0.049,0.08,0.07,0.119c-0.013,0.01-0.024,0.016-0.039,0.024
	c0.018,0.058,0.035,0.119,0.055,0.181c-0.016,0.008-0.027,0.016-0.043,0.023c0.023,0.039,0.049,0.08,0.07,0.119
	c-0.013,0.01-0.024,0.016-0.039,0.023c0.018,0.062,0.035,0.119,0.055,0.18c-0.016,0.011-0.027,0.017-0.043,0.025
	c0.023,0.039,0.049,0.079,0.07,0.118c-0.012,0.011-0.027,0.017-0.039,0.024c0.018,0.062,0.035,0.123,0.051,0.181
	c-0.012,0.009-0.023,0.019-0.039,0.024c0.023,0.039,0.049,0.08,0.07,0.119c-0.014,0.01-0.027,0.016-0.041,0.023
	c0.016,0.023,0.031,0.053,0.047,0.08c-0.012,0.006-0.027,0.016-0.039,0.021c0.018,0.061,0.035,0.121,0.051,0.183
	c-0.012,0.01-0.023,0.016-0.039,0.024c0.023,0.039,0.049,0.08,0.07,0.118c-0.014,0.007-0.027,0.017-0.04,0.024
	c0.019,0.059,0.036,0.119,0.052,0.181c-0.012,0.009-0.023,0.017-0.039,0.024c0.023,0.039,0.046,0.08,0.069,0.119
	c-0.013,0.01-0.027,0.016-0.039,0.023c0.019,0.062,0.036,0.119,0.052,0.18c-0.013,0.011-0.023,0.017-0.04,0.025
	c0.024,0.039,0.047,0.079,0.07,0.119c-0.013,0.009-0.027,0.016-0.039,0.023c0.016,0.023,0.03,0.053,0.045,0.08
	c-0.013,0.006-0.026,0.015-0.039,0.021c0.019,0.099,0.039,0.192,0.06,0.287c-0.021,0.026-0.037,0.058-0.057,0.085
	c0.016,0.027,0.03,0.053,0.046,0.08c-0.019,0.029-0.039,0.058-0.059,0.085c0.016,0.026,0.03,0.056,0.049,0.08
	c-0.029,0.073-0.062,0.144-0.091,0.214c-0.034,0.158-0.064,0.32-0.098,0.479c-0.027,0.017-0.054,0.03-0.08,0.047
	c-0.004,0.056-0.006,0.111-0.013,0.168c-0.046,0.043-0.092,0.086-0.138,0.131c0.004,0.033,0.006,0.068,0.006,0.104
	c-0.059,0.053-0.119,0.104-0.177,0.156c0.006,0.012,0.016,0.023,0.021,0.039c-0.025,0.016-0.053,0.031-0.08,0.046
	c0.01,0.013,0.016,0.024,0.025,0.04c-0.043,0.021-0.083,0.046-0.123,0.066c0.006,0.017,0.016,0.027,0.023,0.039
	c-0.402,0.469-1.627,1.039-2.297,1.422c-1.363,0.778-3.156,2.041-4.293,1.974c-0.049-0.024-0.102-0.049-0.148-0.073
	c-0.027,0.016-0.055,0.03-0.082,0.047c-0.07-0.027-0.143-0.059-0.215-0.09c-0.141-0.027-0.281-0.052-0.422-0.076
	c-0.02-0.027-0.033-0.055-0.049-0.082c-0.033,0.004-0.067,0.006-0.104,0.006c-0.037-0.029-0.073-0.063-0.109-0.095
	c-0.014,0.007-0.027,0.017-0.041,0.021c-0.072-0.063-0.148-0.129-0.222-0.191c-0.013,0.01-0.024,0.016-0.04,0.023
	c-0.016-0.027-0.031-0.055-0.046-0.078c-0.017,0.006-0.028,0.015-0.04,0.021c-0.076-0.064-0.148-0.13-0.225-0.193
	c-0.012,0.007-0.026,0.016-0.039,0.023c-0.023-0.043-0.045-0.082-0.069-0.121c-0.013,0.008-0.026,0.014-0.04,0.023
	c-0.045-0.046-0.088-0.092-0.135-0.139c-0.016,0.011-0.027,0.017-0.039,0.024c-0.023-0.04-0.049-0.079-0.07-0.118
	c-0.015,0.006-0.027,0.016-0.042,0.021c-0.043-0.047-0.09-0.094-0.132-0.137c-0.016,0.008-0.027,0.017-0.043,0.021
	c-0.021-0.039-0.046-0.078-0.07-0.119c-0.012,0.006-0.023,0.016-0.039,0.021c-0.043-0.043-0.089-0.088-0.135-0.135
	c-0.013,0.006-0.023,0.016-0.04,0.021c-0.024-0.04-0.046-0.08-0.069-0.119c-0.013,0.01-0.027,0.016-0.041,0.023
	c-0.045-0.045-0.088-0.092-0.135-0.137c-0.012,0.008-0.027,0.015-0.039,0.023c-0.016-0.027-0.029-0.055-0.049-0.08
	c-0.013,0.006-0.023,0.016-0.04,0.021c-0.021-0.039-0.045-0.08-0.069-0.119c-0.013,0.006-0.027,0.016-0.039,0.025
	c-0.047-0.048-0.09-0.094-0.135-0.139c-0.014,0.006-0.027,0.016-0.041,0.021c-0.022-0.041-0.045-0.08-0.07-0.119
	c-0.012,0.009-0.026,0.015-0.038,0.022c-0.046-0.045-0.089-0.091-0.136-0.137c-0.013,0.009-0.026,0.015-0.039,0.024
	c-0.023-0.039-0.049-0.08-0.069-0.119c-0.017,0.006-0.027,0.016-0.04,0.021c-0.046-0.046-0.092-0.092-0.135-0.138
	c-0.016,0.01-0.027,0.016-0.043,0.023c-0.021-0.039-0.045-0.078-0.07-0.119c-0.012,0.006-0.023,0.016-0.039,0.021
	c-0.043-0.045-0.089-0.088-0.135-0.134c-0.014,0.006-0.024,0.016-0.04,0.021c-0.021-0.039-0.045-0.08-0.07-0.119
	c-0.012,0.01-0.026,0.017-0.039,0.024c-0.073-0.063-0.147-0.131-0.22-0.194c-0.016,0.01-0.027,0.016-0.043,0.023
	c-0.043-0.046-0.089-0.092-0.135-0.139c-0.033,0.004-0.067,0.007-0.104,0.007c-0.069-0.027-0.144-0.058-0.214-0.089
	c-0.443,0.039-0.889,0.08-1.331,0.123c-0.008-0.017-0.017-0.027-0.022-0.041c-0.027,0.017-0.056,0.031-0.082,0.047
	c-0.006-0.016-0.015-0.027-0.022-0.04c-0.026,0.016-0.055,0.03-0.081,0.046c-0.007-0.012-0.018-0.027-0.023-0.039
	c-0.026,0.016-0.055,0.029-0.082,0.046c-0.008-0.013-0.016-0.028-0.022-0.04c-0.062,0.02-0.124,0.033-0.185,0.053
	c-0.029-0.02-0.058-0.037-0.087-0.056c-0.096,0.019-0.192,0.036-0.289,0.058c-0.03-0.019-0.058-0.039-0.088-0.058
	c-0.096,0.021-0.192,0.039-0.289,0.058c-0.029-0.019-0.058-0.035-0.086-0.055c-0.028,0.016-0.054,0.03-0.082,0.046
	c-0.029-0.019-0.058-0.036-0.087-0.056c-0.028,0.016-0.053,0.031-0.081,0.046c-0.029-0.021-0.058-0.039-0.087-0.058
	c-0.061,0.019-0.124,0.035-0.185,0.052c-0.008-0.013-0.016-0.024-0.023-0.04c-0.048,0.01-0.096,0.021-0.145,0.031
	c-0.029-0.02-0.058-0.037-0.087-0.06c-0.027,0.017-0.054,0.031-0.081,0.046c-0.05-0.023-0.101-0.049-0.151-0.072
	c-0.027,0.016-0.053,0.03-0.081,0.045c-0.029-0.019-0.058-0.035-0.086-0.055c-0.026,0.016-0.054,0.03-0.082,0.047
	c-0.05-0.024-0.101-0.05-0.151-0.074c-0.434-0.027-0.883,0.187-1.242,0.551c-0.121,0.068-0.241,0.141-0.362,0.207
	c0.008,0.016,0.015,0.027,0.023,0.04c-0.108,0.062-0.215,0.126-0.324,0.187c0.008,0.014,0.016,0.024,0.023,0.04
	c-0.334,0.226-0.669,0.451-1.003,0.681c0.007,0.013,0.017,0.025,0.024,0.041c-0.122,0.066-0.243,0.138-0.363,0.207
	c0.007,0.014,0.015,0.024,0.022,0.041c-0.107,0.061-0.215,0.121-0.324,0.183c0.009,0.016,0.017,0.026,0.024,0.04
	c-0.134,0.076-0.271,0.156-0.405,0.232c0.008,0.012,0.016,0.026,0.023,0.039c-0.209,0.213-0.69,0.305-0.876,0.342
	c-0.055,0.031-0.109,0.062-0.162,0.093c-0.008-0.013-0.016-0.024-0.024-0.04c-0.026,0.016-0.054,0.029-0.08,0.046
	c-0.009-0.013-0.016-0.024-0.024-0.04c-0.04,0.023-0.081,0.046-0.121,0.07c-0.008-0.014-0.016-0.027-0.023-0.041
	c-0.027,0.017-0.055,0.031-0.081,0.048c-0.008-0.013-0.016-0.028-0.024-0.04c-0.061,0.02-0.123,0.033-0.185,0.052
	c-0.029-0.019-0.058-0.037-0.087-0.055c-0.026,0.015-0.054,0.03-0.081,0.045c-0.029-0.021-0.058-0.039-0.087-0.058
	c-0.025,0.016-0.053,0.029-0.081,0.045c-0.134-0.045-0.271-0.092-0.406-0.141c-0.119-0.02-0.238-0.04-0.359-0.062
	c-0.016-0.022-0.031-0.051-0.048-0.078c-0.033,0.003-0.069,0.006-0.104,0.006C16.37,45,16.325,44.953,16.281,44.91
	c-0.036,0-0.071,0.004-0.105,0.007c-0.073-0.063-0.147-0.129-0.22-0.194c-0.035,0.002-0.07,0.006-0.105,0.006
	c-0.015-0.024-0.03-0.053-0.046-0.08c-0.014,0.01-0.027,0.016-0.041,0.024c-0.015-0.026-0.03-0.053-0.046-0.08
	c-0.035,0.003-0.07,0.003-0.105,0.007c-0.073-0.063-0.146-0.129-0.22-0.192c-0.035,0-0.07,0.004-0.105,0.007
	c-0.073-0.064-0.146-0.129-0.22-0.193c-0.035,0-0.07,0.004-0.105,0.008c-0.073-0.064-0.147-0.131-0.22-0.195
	c-0.035,0.003-0.07,0.006-0.105,0.006c-0.044-0.043-0.088-0.089-0.133-0.135c-0.035,0-0.07,0.003-0.105,0.007
	c-0.015-0.027-0.03-0.056-0.046-0.08c-0.014,0.006-0.027,0.017-0.041,0.021c-0.015-0.023-0.031-0.052-0.046-0.078
	c-0.014,0.009-0.028,0.015-0.042,0.023c-0.015-0.027-0.03-0.056-0.045-0.079c-0.035,0-0.07,0.003-0.105,0.007
	c-0.073-0.064-0.146-0.129-0.22-0.197c-0.035,0.005-0.07,0.008-0.105,0.011c-0.074-0.067-0.147-0.131-0.22-0.195
	c-0.035,0.003-0.07,0.007-0.105,0.007c-0.044-0.043-0.088-0.09-0.133-0.135c-0.035,0-0.07,0.002-0.105,0.006
	c-0.073-0.063-0.147-0.129-0.22-0.191c-0.035,0-0.071,0.002-0.106,0.006c-0.073-0.064-0.146-0.133-0.22-0.196
	c-0.035,0.004-0.07,0.007-0.105,0.011c-0.074-0.067-0.147-0.133-0.221-0.195c-0.035,0.003-0.07,0.006-0.105,0.006
	c-0.044-0.046-0.088-0.09-0.133-0.135c-0.035,0-0.07,0.002-0.105,0.007c-0.044-0.048-0.088-0.093-0.133-0.138
	c-0.014,0.008-0.027,0.015-0.041,0.023c-0.044-0.046-0.088-0.093-0.133-0.139c-0.014,0.007-0.027,0.017-0.041,0.021
	c-0.023-0.04-0.047-0.08-0.071-0.119c-0.014,0.01-0.027,0.016-0.04,0.024c-0.024-0.04-0.047-0.08-0.07-0.119
	c-0.014,0.006-0.027,0.017-0.041,0.021c-0.023-0.039-0.046-0.08-0.071-0.118c-0.014,0.009-0.025,0.015-0.039,0.024
	c-0.098-0.087-0.56-0.762-0.602-0.937c0.014-0.009,0.026-0.017,0.04-0.022c-0.038-0.064-0.078-0.133-0.116-0.199
	c0.012-0.008,0.026-0.016,0.04-0.021c-0.031-0.057-0.063-0.107-0.093-0.163c0.014-0.006,0.026-0.017,0.04-0.021
	c-0.016-0.027-0.031-0.055-0.046-0.08c0.014-0.008,0.025-0.014,0.039-0.023c-0.022-0.04-0.047-0.079-0.07-0.119
	c0.014-0.009,0.027-0.015,0.042-0.023c-0.019-0.062-0.037-0.122-0.054-0.184c0.014-0.007,0.026-0.016,0.04-0.021
	c-0.017-0.062-0.035-0.123-0.054-0.185c0.02-0.027,0.039-0.058,0.058-0.086c-0.015-0.027-0.03-0.052-0.047-0.078
	c0.02-0.031,0.039-0.06,0.058-0.086c-0.015-0.027-0.03-0.057-0.047-0.08c0.026-0.052,0.05-0.101,0.075-0.148
	c-0.015-0.027-0.03-0.057-0.047-0.08c0.026-0.053,0.05-0.102,0.075-0.148c-0.015-0.027-0.031-0.056-0.045-0.08
	c0.024-0.053,0.048-0.102,0.073-0.149c-0.015-0.027-0.03-0.052-0.045-0.079c0.024-0.049,0.049-0.102,0.073-0.15
	c-0.015-0.026-0.03-0.052-0.045-0.078c0.018-0.027,0.038-0.059,0.056-0.086c-0.015-0.027-0.03-0.056-0.045-0.08
	c0.018-0.029,0.038-0.058,0.056-0.088c-0.009-0.047-0.02-0.096-0.029-0.141c0.025-0.053,0.049-0.102,0.073-0.148
	c-0.015-0.028-0.031-0.057-0.045-0.08c0.024-0.049,0.049-0.102,0.073-0.149c-0.015-0.026-0.03-0.054-0.045-0.08
	c0.024-0.049,0.049-0.101,0.075-0.149c-0.017-0.026-0.032-0.052-0.047-0.078c0.024-0.049,0.049-0.103,0.075-0.15
	c-0.017-0.027-0.032-0.052-0.047-0.079c0.024-0.049,0.049-0.098,0.075-0.149c-0.016-0.023-0.032-0.051-0.047-0.08
	c0.024-0.049,0.05-0.098,0.075-0.148c-0.015-0.023-0.032-0.052-0.047-0.079c0.02-0.028,0.038-0.058,0.058-0.085
	c-0.016-0.027-0.032-0.053-0.047-0.08c0.024-0.049,0.049-0.101,0.075-0.148c-0.016-0.027-0.032-0.053-0.047-0.08
	c0.025-0.049,0.05-0.102,0.075-0.149c-0.015-0.024-0.032-0.052-0.047-0.079c0.025-0.049,0.05-0.098,0.075-0.15
	c-0.015-0.023-0.032-0.051-0.047-0.078c0.02-0.027,0.038-0.059,0.058-0.086c-0.016-0.027-0.032-0.053-0.047-0.079
	c0.014-0.009,0.027-0.017,0.041-0.024c-0.015-0.023-0.032-0.052-0.047-0.078c0.014-0.007,0.028-0.017,0.042-0.021
	c-0.024-0.04-0.048-0.08-0.07-0.123c0.012-0.006,0.026-0.016,0.04-0.021c-0.332-0.504-0.662-1.006-0.993-1.51
	c-0.281-0.479-0.562-0.96-0.843-1.438c0.014-0.008,0.027-0.015,0.041-0.022c-0.182-0.34-0.364-0.683-0.545-1.021
	c-0.012,0.009-0.026,0.016-0.04,0.023c-0.023-0.04-0.047-0.079-0.07-0.119c-0.014,0.006-0.027,0.016-0.04,0.021
	c-0.024-0.039-0.047-0.079-0.07-0.118c-0.035,0.003-0.07,0.003-0.105,0.006c-0.016-0.026-0.031-0.053-0.046-0.08
	c-0.035,0.004-0.07,0.004-0.105,0.007c-0.015-0.027-0.03-0.052-0.046-0.08c-0.056-0.002-0.112-0.006-0.168-0.012
	c-0.015-0.023-0.03-0.052-0.047-0.08c-0.057-0.002-0.111-0.006-0.168-0.008c-0.015-0.027-0.031-0.057-0.046-0.08
	c-0.057-0.003-0.113-0.006-0.168-0.013c-0.017-0.024-0.032-0.052-0.047-0.079c-0.035,0.003-0.07,0.006-0.104,0.006
	c-0.037-0.029-0.075-0.062-0.112-0.095c-0.055-0.003-0.111-0.009-0.167-0.013c-0.015-0.023-0.031-0.052-0.046-0.078
	c-0.056-0.004-0.113-0.008-0.167-0.01c-0.015-0.027-0.032-0.056-0.047-0.08c-0.035,0-0.069,0.004-0.104,0.006
	c-0.016-0.027-0.032-0.056-0.047-0.078c-0.055-0.008-0.111-0.01-0.168-0.014c-0.015-0.027-0.031-0.052-0.046-0.078
	c-0.057-0.004-0.113-0.008-0.168-0.01c-0.017-0.027-0.032-0.056-0.047-0.08c-0.057-0.006-0.112-0.01-0.168-0.012
	c-0.016-0.027-0.031-0.053-0.048-0.08c-0.055-0.003-0.111-0.006-0.168-0.009c-0.036-0.033-0.073-0.067-0.11-0.099
	c-0.035,0.002-0.068,0.002-0.104,0.006c-0.015-0.026-0.032-0.051-0.047-0.079c-0.055-0.002-0.112-0.007-0.168-0.013
	c-0.037-0.029-0.074-0.062-0.11-0.095c-0.035,0.005-0.07,0.005-0.104,0.007c-0.017-0.027-0.032-0.053-0.048-0.08
	c-0.035,0-0.069,0.004-0.104,0.008c-0.015-0.028-0.032-0.057-0.047-0.08c-0.072-0.01-0.127-0.016-0.184-0.021
	c-0.016-0.022-0.031-0.051-0.046-0.079c-0.035,0.004-0.07,0.008-0.105,0.008c-0.016-0.025-0.03-0.054-0.046-0.08
	c-0.035,0.002-0.07,0.006-0.105,0.006c-0.016-0.024-0.031-0.053-0.046-0.079c-0.014,0.009-0.027,0.016-0.041,0.024
	c-0.044-0.047-0.089-0.093-0.133-0.139c-0.014,0.01-0.027,0.016-0.041,0.025c-0.059-0.074-0.121-0.147-0.18-0.219
	c-0.014,0.006-0.028,0.017-0.042,0.021c-0.075-0.098-0.151-0.196-0.228-0.296c-0.012,0.009-0.026,0.018-0.04,0.022
	c-0.151-0.14-0.373-0.646-0.405-0.781c-0.056-0.125-0.113-0.254-0.17-0.383c0.014-0.006,0.028-0.015,0.04-0.021
	c-0.016-0.026-0.03-0.056-0.046-0.078c0.014-0.01,0.026-0.017,0.04-0.024c-0.023-0.039-0.048-0.08-0.07-0.119
	c0.014-0.01,0.027-0.016,0.041-0.024c-0.02-0.095-0.04-0.188-0.06-0.284c0.014-0.009,0.026-0.016,0.04-0.023
	c-0.016-0.024-0.031-0.053-0.047-0.079c0.014-0.007,0.027-0.017,0.041-0.021c-0.019-0.062-0.035-0.122-0.054-0.184
	c0.02-0.03,0.039-0.058,0.058-0.086c-0.018-0.062-0.037-0.121-0.053-0.183c0.018-0.031,0.038-0.06,0.056-0.086
	c-0.015-0.027-0.03-0.056-0.045-0.08c0.014-0.009,0.027-0.016,0.04-0.023c-0.015-0.027-0.031-0.053-0.046-0.079
	c0.012-0.011,0.026-0.017,0.04-0.024c-0.016-0.023-0.031-0.052-0.047-0.08c0.02-0.026,0.038-0.058,0.058-0.086
	c-0.02-0.095-0.04-0.188-0.06-0.283c0.019-0.03,0.039-0.059,0.058-0.088c-0.02-0.095-0.04-0.19-0.059-0.285
	c0.018-0.027,0.038-0.059,0.056-0.086c-0.015-0.026-0.031-0.053-0.046-0.078c0.012-0.01,0.026-0.016,0.04-0.025
	c-0.016-0.025-0.031-0.052-0.047-0.079c0.02-0.028,0.038-0.058,0.058-0.085c-0.02-0.095-0.04-0.191-0.06-0.286
	c0.019-0.032,0.039-0.06,0.058-0.09c-0.021-0.095-0.041-0.189-0.061-0.284c0.02-0.029,0.04-0.058,0.058-0.087
	c-0.02-0.095-0.04-0.191-0.06-0.286c0.02-0.028,0.038-0.056,0.058-0.085c-0.019-0.061-0.037-0.122-0.054-0.184
	c0.019-0.027,0.039-0.056,0.058-0.085c-0.021-0.094-0.041-0.189-0.061-0.286c0.02-0.029,0.038-0.057,0.058-0.085
	c-0.02-0.096-0.04-0.191-0.06-0.286c0.02-0.029,0.038-0.058,0.057-0.085c-0.019-0.096-0.039-0.191-0.058-0.288
	c0.019-0.027,0.038-0.056,0.056-0.085c-0.017-0.061-0.035-0.122-0.053-0.183c0.02-0.028,0.038-0.057,0.058-0.085
	c-0.02-0.095-0.04-0.189-0.06-0.284c0.018-0.031,0.038-0.058,0.057-0.087c-0.016-0.026-0.031-0.054-0.046-0.082
	c0.03-0.07,0.061-0.14,0.092-0.21c-0.016-0.028-0.032-0.053-0.048-0.08c0.042-0.113,0.084-0.226,0.125-0.339
	c-0.001-0.034-0.004-0.067-0.006-0.103c0.027-0.015,0.053-0.031,0.081-0.047c0.003-0.055,0.008-0.11,0.011-0.165
	c0.027-0.015,0.054-0.03,0.081-0.046c-0.003-0.033-0.004-0.068-0.006-0.104c0.026-0.015,0.053-0.03,0.08-0.045
	c-0.008-0.012-0.016-0.026-0.023-0.04c0.066-0.073,0.13-0.145,0.196-0.218c-0.008-0.014-0.015-0.026-0.023-0.04
	c0.105-0.096,0.211-0.191,0.316-0.288c-0.008-0.014-0.016-0.025-0.023-0.041c0.067-0.037,0.135-0.077,0.202-0.115
	c-0.008-0.014-0.016-0.026-0.023-0.04c0.208-0.214,0.978-0.518,1.178-0.567c0.739-0.334,1.479-0.669,2.218-1.001
	c0.148-0.039,0.868-0.301,1.018-0.476c-0.009-0.014-0.017-0.026-0.024-0.04c0.027-0.016,0.055-0.03,0.081-0.046
	c-0.008-0.014-0.016-0.026-0.023-0.042c0.04-0.021,0.081-0.046,0.121-0.067c-0.001-0.035-0.004-0.07-0.006-0.104
	c0.026-0.015,0.054-0.031,0.081-0.046c-0.003-0.033-0.004-0.068-0.006-0.104c0.026-0.015,0.053-0.03,0.08-0.046
	c0.004-0.055,0.007-0.11,0.011-0.165c0.027-0.016,0.055-0.031,0.081-0.046c-0.001-0.035-0.003-0.07-0.006-0.104
	c0.027-0.015,0.053-0.031,0.081-0.046c-0.007-0.014-0.015-0.027-0.022-0.04c0.032-0.037,0.064-0.074,0.098-0.11
	c-0.003-0.034-0.005-0.069-0.006-0.103c0.026-0.017,0.054-0.032,0.08-0.047c-0.001-0.034-0.003-0.067-0.006-0.103
	c0.028-0.015,0.055-0.03,0.082-0.046c-0.002-0.035-0.005-0.069-0.006-0.102c0.028-0.015,0.053-0.031,0.081-0.047
	c-0.003-0.033-0.005-0.069-0.006-0.102c0.046-0.045,0.092-0.089,0.138-0.133c-0.002-0.033-0.005-0.069-0.006-0.102
	c0.046-0.044,0.092-0.089,0.139-0.131c-0.003-0.035-0.004-0.071-0.007-0.104c0.066-0.074,0.132-0.145,0.196-0.219
	c-0.002-0.035-0.003-0.068-0.006-0.102c0.046-0.044,0.093-0.088,0.139-0.133c-0.007-0.014-0.017-0.026-0.024-0.04
	c0.027-0.015,0.055-0.03,0.081-0.047c-0.008-0.013-0.015-0.026-0.023-0.04c0.027-0.015,0.053-0.031,0.081-0.046
	c-0.008-0.012-0.015-0.026-0.024-0.04c0.027-0.016,0.055-0.031,0.081-0.046c-0.007-0.014-0.015-0.028-0.022-0.04
	c0.027-0.016,0.055-0.031,0.081-0.046c-0.008-0.014-0.016-0.028-0.023-0.04c0.046-0.046,0.092-0.089,0.138-0.133
	c-0.008-0.014-0.016-0.026-0.023-0.04c0.046-0.044,0.092-0.089,0.138-0.133c-0.008-0.012-0.016-0.026-0.023-0.04
	c0.028-0.016,0.054-0.031,0.081-0.046c-0.007-0.014-0.015-0.028-0.023-0.04c0.064-0.073,0.13-0.146,0.196-0.218
	c-0.008-0.014-0.017-0.027-0.024-0.041c0.06-0.051,0.119-0.103,0.179-0.155c-0.001-0.035-0.005-0.069-0.006-0.102
	c0.028-0.016,0.053-0.031,0.081-0.046c-0.007-0.015-0.015-0.027-0.023-0.041C10.841,14.343,10.847,14.327,10.924,14.251z
	 M19.985,18.02c-0.047,0.13-0.262,0.148-0.38,0.271c0.007,0.014,0.015,0.027,0.022,0.04c-0.067,0.04-0.134,0.078-0.202,0.116
	c0.008,0.014,0.016,0.028,0.023,0.04c-0.081,0.046-0.16,0.091-0.241,0.139c0.008,0.014,0.015,0.026,0.023,0.04
	c-0.053,0.03-0.108,0.062-0.162,0.093c0.008,0.012,0.016,0.026,0.024,0.04c-0.055,0.03-0.108,0.061-0.162,0.091
	c0.008,0.014,0.015,0.027,0.022,0.04c-0.053,0.03-0.108,0.061-0.162,0.091c0.008,0.016,0.016,0.027,0.024,0.042
	c-0.055,0.03-0.108,0.061-0.162,0.093c0.008,0.012,0.016,0.026,0.023,0.04c-0.04,0.021-0.081,0.045-0.121,0.069
	c0.008,0.014,0.016,0.026,0.023,0.04c-0.04,0.022-0.081,0.046-0.121,0.069c0.007,0.014,0.015,0.027,0.023,0.04
	c-0.04,0.024-0.081,0.046-0.121,0.07c0.008,0.012,0.015,0.026,0.022,0.04c-0.059,0.052-0.119,0.104-0.179,0.156
	c0.008,0.012,0.016,0.026,0.023,0.04c-0.026,0.015-0.054,0.03-0.08,0.046c0.006,0.012,0.015,0.027,0.023,0.04
	c-0.042,0.023-0.081,0.046-0.123,0.07c0.008,0.012,0.017,0.026,0.024,0.04c-0.065,0.072-0.131,0.145-0.195,0.217
	c0.008,0.014,0.016,0.027,0.023,0.04c-0.027,0.017-0.053,0.032-0.081,0.047c0.008,0.014,0.015,0.026,0.023,0.04
	c-0.026,0.015-0.053,0.031-0.08,0.046c0.008,0.014,0.016,0.026,0.023,0.042c-0.027,0.015-0.053,0.03-0.081,0.045
	c0.007,0.013,0.015,0.026,0.022,0.04c-0.026,0.015-0.053,0.03-0.081,0.045c0.008,0.014,0.017,0.028,0.024,0.04
	c-0.027,0.016-0.055,0.03-0.081,0.046c0.008,0.014,0.015,0.027,0.023,0.04c-0.028,0.016-0.054,0.03-0.081,0.047
	c0.008,0.014,0.016,0.026,0.024,0.04c-0.027,0.016-0.055,0.031-0.081,0.046c0.002,0.035,0.003,0.068,0.006,0.102
	c-0.046,0.044-0.092,0.088-0.139,0.133c0.008,0.014,0.017,0.026,0.024,0.04c-0.033,0.037-0.065,0.074-0.098,0.109
	c0.001,0.035,0.003,0.07,0.006,0.104c-0.027,0.016-0.053,0.031-0.081,0.046c0.008,0.014,0.015,0.027,0.022,0.04
	c-0.032,0.037-0.064,0.073-0.097,0.11c0.003,0.034,0.004,0.067,0.006,0.102c-0.026,0.016-0.054,0.032-0.081,0.047
	c-0.008,0.077-0.018,0.151-0.027,0.229c-0.026,0.014-0.053,0.03-0.081,0.046c-0.003,0.055-0.006,0.11-0.009,0.165
	c-0.034,0.037-0.066,0.074-0.098,0.11c-0.038,0.18-0.076,0.362-0.113,0.543c-0.027,0.016-0.053,0.03-0.081,0.046
	c0.001,0.034,0.004,0.069,0.006,0.102c-0.014,0.008-0.027,0.018-0.04,0.023c0.015,0.027,0.031,0.053,0.045,0.08
	c-0.064,0.197-0.128,0.394-0.192,0.591c0.016,0.026,0.031,0.054,0.046,0.08c-0.03,0.072-0.061,0.142-0.092,0.212
	c0.017,0.027,0.032,0.052,0.048,0.08c-0.024,0.049-0.049,0.099-0.075,0.149c0.017,0.026,0.032,0.052,0.048,0.079
	c-0.021,0.028-0.039,0.059-0.059,0.086c0.017,0.028,0.032,0.053,0.048,0.08c-0.025,0.05-0.049,0.101-0.075,0.149
	c0.017,0.027,0.032,0.054,0.047,0.08c-0.019,0.029-0.038,0.058-0.058,0.085c0.018,0.062,0.036,0.122,0.053,0.183
	c-0.019,0.029-0.039,0.058-0.057,0.085c0.017,0.062,0.035,0.123,0.052,0.184c-0.018,0.029-0.038,0.058-0.056,0.085
	c0.02,0.097,0.04,0.191,0.06,0.287c-0.014,0.006-0.028,0.016-0.042,0.021c0.017,0.028,0.032,0.055,0.047,0.082
	c-0.014,0.006-0.027,0.014-0.04,0.022c0.02,0.095,0.04,0.188,0.06,0.286c-0.014,0.008-0.028,0.016-0.042,0.022
	c0.026,0.074,0.052,0.148,0.077,0.224c-0.014,0.008-0.026,0.016-0.04,0.022c0.016,0.025,0.031,0.054,0.046,0.079
	c-0.012,0.008-0.026,0.016-0.04,0.021c0.023,0.041,0.047,0.08,0.07,0.121c-0.014,0.008-0.028,0.015-0.04,0.022
	c0.015,0.026,0.03,0.052,0.045,0.079c-0.014,0.008-0.026,0.016-0.04,0.023c0.034,0.088,0.066,0.176,0.099,0.262
	c-0.014,0.01-0.026,0.016-0.04,0.025c0.023,0.039,0.045,0.078,0.07,0.117c-0.014,0.006-0.028,0.016-0.042,0.024
	c0.024,0.04,0.047,0.079,0.07,0.12c-0.014,0.006-0.026,0.015-0.04,0.021c0.031,0.056,0.062,0.106,0.093,0.162
	c-0.014,0.006-0.027,0.017-0.039,0.021c0.03,0.056,0.061,0.106,0.093,0.16c-0.014,0.008-0.027,0.016-0.041,0.022
	c0.032,0.053,0.062,0.106,0.094,0.159c-0.014,0.01-0.027,0.016-0.041,0.025c0.04,0.062,0.078,0.131,0.118,0.197
	c-0.014,0.006-0.027,0.016-0.041,0.023c0.047,0.08,0.095,0.158,0.14,0.238c-0.014,0.006-0.026,0.017-0.04,0.021
	c0.046,0.082,0.093,0.16,0.141,0.24c-0.014,0.007-0.027,0.017-0.042,0.021c0.078,0.135,0.156,0.266,0.234,0.4
	c-0.012,0.006-0.026,0.016-0.04,0.021c0.133,0.226,0.266,0.451,0.397,0.679c0.396,0.674,0.863,1.226,1.336,1.634
	c0.031,0.053,0.063,0.106,0.093,0.159c0.014-0.006,0.028-0.016,0.04-0.021c0.024,0.039,0.047,0.079,0.07,0.118
	c0.014-0.009,0.028-0.015,0.042-0.022c0.022,0.038,0.047,0.078,0.07,0.118c0.014-0.007,0.026-0.016,0.04-0.021
	c0.024,0.039,0.047,0.078,0.07,0.117c0.014-0.006,0.028-0.015,0.042-0.021c0.06,0.071,0.121,0.146,0.18,0.214
	c0.014-0.006,0.027-0.015,0.04-0.021c0.017,0.024,0.032,0.053,0.047,0.08c0.014-0.01,0.027-0.017,0.041-0.023
	c0.023,0.039,0.046,0.078,0.07,0.121c0.012-0.01,0.026-0.018,0.04-0.023c0.074,0.063,0.148,0.129,0.222,0.192
	c0.014-0.007,0.026-0.017,0.04-0.021c0.016,0.022,0.032,0.051,0.048,0.078c0.014-0.01,0.025-0.016,0.039-0.023
	c0.016,0.027,0.032,0.055,0.047,0.078c0.014-0.006,0.026-0.016,0.04-0.021c0.017,0.025,0.032,0.054,0.047,0.08
	c0.014-0.01,0.027-0.017,0.041-0.024c0.016,0.026,0.031,0.056,0.046,0.08c0.014-0.007,0.028-0.017,0.042-0.021
	c0.015,0.027,0.03,0.052,0.046,0.079c0.014-0.009,0.027-0.015,0.041-0.024c0.015,0.028,0.031,0.057,0.045,0.079
	c0.014-0.006,0.028-0.015,0.042-0.021c0.016,0.027,0.031,0.053,0.046,0.08c0.035-0.004,0.07-0.004,0.105-0.006
	c0.073,0.063,0.146,0.127,0.22,0.191c0.035-0.004,0.07-0.004,0.104-0.006c0.017,0.027,0.032,0.055,0.047,0.079
	c0.057,0.003,0.113,0.009,0.168,0.013c0.016,0.023,0.032,0.053,0.048,0.079c0.035-0.003,0.068-0.006,0.104-0.006
	c0.015,0.022,0.032,0.051,0.047,0.079c0.034-0.004,0.069-0.008,0.104-0.008c0.015,0.025,0.031,0.054,0.047,0.08
	c0.034-0.002,0.069-0.006,0.104-0.006c0.008,0.012,0.015,0.024,0.022,0.041c0.035-0.005,0.071-0.008,0.104-0.008
	c0.016,0.023,0.032,0.053,0.047,0.079c0.098,0.017,0.197,0.031,0.295,0.043c0.017,0.026,0.032,0.056,0.047,0.08
	c0.226,0.049,0.452,0.097,0.678,0.146c0.114,0.041,0.229,0.082,0.342,0.123c0.027-0.016,0.055-0.031,0.081-0.047
	c0.093,0.037,0.186,0.074,0.279,0.107c0.026-0.016,0.053-0.031,0.081-0.047c0.029,0.02,0.058,0.041,0.087,0.059
	c0.014-0.01,0.026-0.016,0.04-0.023c0.029,0.019,0.058,0.035,0.087,0.058c0.028-0.015,0.055-0.029,0.081-0.045
	c0.029,0.019,0.058,0.036,0.087,0.055c0.049-0.01,0.096-0.019,0.146-0.026c0.008,0.012,0.015,0.023,0.022,0.039
	c0.028-0.016,0.054-0.033,0.082-0.049c0.05,0.024,0.1,0.049,0.151,0.073c0.061-0.017,0.124-0.034,0.185-0.053
	c0.029,0.019,0.058,0.04,0.087,0.059c0.061-0.019,0.124-0.036,0.185-0.053c0.029,0.019,0.059,0.037,0.087,0.056
	c0.027-0.016,0.053-0.029,0.081-0.046c0.007,0.013,0.015,0.027,0.022,0.04c0.028-0.016,0.055-0.031,0.082-0.046
	c0.007,0.013,0.017,0.026,0.024,0.039c0.025-0.015,0.053-0.03,0.081-0.045c0.008,0.012,0.016,0.026,0.023,0.039
	c0.026-0.017,0.054-0.03,0.081-0.046c0.008,0.013,0.016,0.027,0.023,0.039c0.027-0.016,0.053-0.03,0.081-0.045
	c0.008,0.013,0.015,0.026,0.021,0.039c0.028-0.016,0.055-0.03,0.082-0.047c0.008,0.014,0.016,0.025,0.024,0.041
	c0.096-0.021,0.192-0.041,0.289-0.059c0.008,0.012,0.015,0.023,0.022,0.039c0.041-0.023,0.082-0.049,0.123-0.07
	c0.008,0.014,0.016,0.027,0.022,0.041c0.062-0.02,0.123-0.035,0.185-0.053c0.008,0.012,0.016,0.023,0.023,0.039
	c0.499-0.128,1.004-0.253,1.504-0.381c0.229-0.096,0.462-0.192,0.691-0.29c0.121-0.068,0.244-0.138,0.362-0.208
	c0.009,0.016,0.019,0.027,0.024,0.043c0.218-0.059,0.679-0.395,0.785-0.504c0.162-0.094,0.324-0.186,0.486-0.278
	c-0.011-0.013-0.017-0.024-0.025-0.04c0.107-0.061,0.218-0.123,0.324-0.184c-0.01-0.012-0.016-0.027-0.024-0.041
	c0.067-0.038,0.135-0.075,0.202-0.114c-0.006-0.013-0.016-0.026-0.021-0.04c0.066-0.04,0.135-0.076,0.202-0.116
	c-0.01-0.013-0.017-0.024-0.024-0.04c0.102-0.072,0.201-0.148,0.299-0.223c-0.006-0.016-0.016-0.027-0.021-0.04
	c0.052-0.033,0.106-0.063,0.159-0.095c-0.006-0.012-0.016-0.023-0.021-0.039c0.039-0.021,0.08-0.047,0.119-0.067
	c-0.006-0.016-0.016-0.026-0.021-0.043c0.039-0.021,0.079-0.046,0.118-0.067c-0.006-0.015-0.016-0.026-0.021-0.039
	c0.04-0.023,0.079-0.045,0.122-0.07c-0.01-0.012-0.018-0.027-0.023-0.039c0.072-0.059,0.146-0.119,0.221-0.178
	c0.956-1.276,1.622-2.664,1.77-4.157c0.029-0.069,0.061-0.142,0.092-0.212c-0.017-0.026-0.031-0.053-0.047-0.079
	c0.019-0.027,0.037-0.06,0.059-0.086c-0.012-0.05-0.021-0.095-0.03-0.144c0.013-0.009,0.027-0.017,0.04-0.023
	c-0.016-0.026-0.031-0.053-0.046-0.08c0.019-0.029,0.036-0.059,0.058-0.087c-0.019-0.026-0.033-0.052-0.049-0.079
	c0.02-0.028,0.039-0.059,0.059-0.086c-0.016-0.028-0.03-0.053-0.047-0.08c0.02-0.029,0.037-0.058,0.056-0.085
	c-0.019-0.096-0.039-0.192-0.058-0.287c0.019-0.028,0.039-0.057,0.058-0.085c-0.019-0.061-0.036-0.122-0.056-0.184
	c0.017-0.006,0.027-0.015,0.043-0.021c-0.018-0.027-0.033-0.055-0.049-0.081c0.016-0.008,0.027-0.016,0.041-0.023
	c-0.02-0.095-0.041-0.189-0.06-0.286c0.013-0.007,0.028-0.015,0.04-0.022c-0.021-0.04-0.047-0.08-0.07-0.119
	c0.016-0.009,0.027-0.016,0.04-0.024c-0.017-0.062-0.034-0.121-0.053-0.182c0.013-0.007,0.028-0.015,0.04-0.023
	c-0.024-0.075-0.049-0.149-0.076-0.223c0.016-0.008,0.027-0.016,0.04-0.023c-0.11-0.434-0.22-0.868-0.33-1.301
	c-0.138-0.295-0.274-0.59-0.413-0.885c0.016-0.008,0.027-0.016,0.043-0.023c-0.064-0.24-0.656-1.125-0.791-1.254
	c-0.137-0.205-0.273-0.409-0.412-0.614c-0.016,0.007-0.027,0.015-0.043,0.022c-0.037-0.065-0.076-0.132-0.115-0.2
	c-0.014,0.01-0.027,0.016-0.041,0.025c-0.039-0.067-0.078-0.135-0.115-0.2c-0.016,0.008-0.027,0.015-0.043,0.023
	c-0.029-0.054-0.062-0.107-0.092-0.159c-0.016,0.006-0.026,0.015-0.043,0.021c-0.031-0.052-0.061-0.106-0.092-0.159
	c-0.016,0.009-0.027,0.015-0.039,0.025c-0.025-0.042-0.05-0.082-0.07-0.122c-0.016,0.008-0.027,0.016-0.043,0.023
	c-0.021-0.04-0.045-0.08-0.07-0.12c-0.012,0.008-0.023,0.016-0.039,0.023c-0.021-0.04-0.046-0.08-0.07-0.121
	c-0.013,0.009-0.027,0.015-0.039,0.024c-0.023-0.04-0.046-0.08-0.07-0.12c-0.012,0.006-0.027,0.016-0.039,0.021
	c-0.062-0.07-0.122-0.143-0.182-0.215c-0.016,0.008-0.027,0.016-0.043,0.023c-0.015-0.027-0.029-0.054-0.046-0.079
	c-0.012,0.008-0.026,0.015-0.038,0.022c-0.025-0.04-0.05-0.079-0.07-0.121c-0.017,0.009-0.027,0.016-0.041,0.024
	c-0.072-0.064-0.148-0.128-0.223-0.192c-0.013,0.006-0.027,0.015-0.039,0.021c-0.017-0.026-0.031-0.052-0.047-0.079
	c-0.015,0.007-0.027,0.015-0.042,0.024c-0.016-0.028-0.03-0.055-0.047-0.082c-0.012,0.008-0.026,0.016-0.039,0.023
	c-0.016-0.026-0.03-0.052-0.046-0.08c-0.016,0.008-0.027,0.016-0.043,0.023c-0.016-0.026-0.029-0.054-0.045-0.08
	c-0.014,0.008-0.028,0.015-0.041,0.023c-0.016-0.027-0.03-0.053-0.045-0.08c-0.016,0.006-0.028,0.016-0.043,0.023
	c-0.016-0.026-0.03-0.054-0.046-0.082c-0.013,0.009-0.027,0.017-0.039,0.024c-0.017-0.027-0.031-0.053-0.05-0.079
	c-0.034,0.001-0.067,0.003-0.104,0.006c-0.043-0.046-0.089-0.091-0.135-0.137c-0.033,0.003-0.067,0.004-0.104,0.006
	c-0.016-0.026-0.029-0.052-0.046-0.08c-0.032,0.003-0.069,0.005-0.104,0.006c-0.015-0.026-0.03-0.052-0.046-0.079
	c-0.036,0.003-0.069,0.004-0.106,0.006c-0.016-0.026-0.03-0.052-0.046-0.08c-0.033,0.003-0.07,0.004-0.104,0.006
	c-0.017-0.026-0.031-0.052-0.047-0.08c-0.058-0.003-0.113-0.006-0.168-0.011c-0.016-0.026-0.031-0.053-0.049-0.08
	c-0.055-0.004-0.109-0.008-0.169-0.011c-0.036-0.032-0.071-0.064-0.108-0.096c-0.162-0.032-0.324-0.062-0.486-0.094
	c-0.016-0.026-0.03-0.054-0.046-0.08c-0.144-0.026-0.284-0.052-0.425-0.078c-0.026-0.018-0.059-0.038-0.088-0.056
	c-0.024,0.015-0.053,0.03-0.08,0.045c-0.135-0.047-0.271-0.093-0.405-0.141c-0.027,0.016-0.056,0.031-0.08,0.046
	c-0.072-0.029-0.146-0.06-0.216-0.09c-0.027,0.015-0.053,0.03-0.082,0.046c-0.051-0.024-0.1-0.049-0.151-0.073
	c-0.024,0.015-0.053,0.03-0.081,0.046c-0.029-0.019-0.058-0.037-0.087-0.055c-0.026,0.015-0.054,0.031-0.081,0.045
	c-0.049-0.024-0.102-0.049-0.15-0.073c-0.026,0.016-0.055,0.031-0.081,0.046c-0.029-0.018-0.058-0.038-0.087-0.056
	c-0.098,0.02-0.194,0.038-0.29,0.059c-0.029-0.02-0.058-0.04-0.087-0.058c-0.061,0.019-0.124,0.036-0.185,0.052
	c-0.029-0.019-0.058-0.037-0.087-0.055c-0.061,0.017-0.124,0.034-0.185,0.052c-0.007-0.014-0.015-0.028-0.023-0.04
	c-0.098,0.019-0.194,0.04-0.29,0.059c-0.008-0.013-0.015-0.026-0.023-0.04c-0.042,0.023-0.081,0.046-0.122,0.07
	c-0.008-0.014-0.016-0.027-0.023-0.04c-0.025,0.016-0.053,0.031-0.081,0.046c-0.008-0.014-0.016-0.027-0.023-0.04
	c-0.042,0.021-0.081,0.046-0.121,0.069c-0.007-0.014-0.017-0.026-0.025-0.041c-0.061,0.018-0.122,0.036-0.185,0.053
	c-0.008-0.014-0.015-0.026-0.022-0.04c-0.04,0.022-0.082,0.045-0.121,0.069c-0.007-0.013-0.017-0.026-0.024-0.04
	c-0.04,0.024-0.081,0.046-0.121,0.07c-0.008-0.014-0.015-0.027-0.023-0.04c-0.042,0.021-0.081,0.046-0.122,0.069
	c-0.008-0.014-0.016-0.026-0.023-0.04c-0.039,0.023-0.081,0.046-0.121,0.069c-0.007-0.012-0.017-0.026-0.024-0.04
	c-0.053,0.031-0.107,0.062-0.162,0.092c-0.007-0.012-0.015-0.026-0.023-0.04c-0.053,0.031-0.107,0.062-0.162,0.093
	c-0.007-0.014-0.015-0.026-0.022-0.04c-0.054,0.031-0.107,0.061-0.162,0.092c-0.008-0.014-0.015-0.026-0.023-0.04
	c-0.053,0.03-0.108,0.062-0.162,0.093c-0.008-0.014-0.015-0.028-0.022-0.04c-0.156,0.07-0.312,0.142-0.468,0.214
	c-0.009-0.014-0.017-0.028-0.024-0.04c-0.121,0.069-0.243,0.137-0.363,0.208C20.991,17.359,20.432,17.768,19.985,18.02z"/>
</svg>
