<?xml version="1.0" encoding="utf-8"?>
<!-- Generator: Adobe Illustrator 15.0.2, SVG Export Plug-In . SVG Version: 6.00 Build 0)  -->
<!DOCTYPE svg PUBLIC "-//W3C//DTD SVG 1.1//EN" "http://www.w3.org/Graphics/SVG/1.1/DTD/svg11.dtd">
<svg version="1.1" id="Layer_1" xmlns="http://www.w3.org/2000/svg" xmlns:xlink="http://www.w3.org/1999/xlink" x="0px" y="0px"
	 width="100%" height="100%" viewBox="0 0 50 50" enable-background="new 0 0 50 50" xml:space="preserve">
		<path fill-rule="evenodd" clip-rule="evenodd" fill="black" d="M37.017,24.286H12.933c-1.552,0-1.552,1.541-1.552,1.541
			l27.238-0.049C38.619,24.585,37.017,24.286,37.017,24.286z M35.415,21.105h-20.88c-1.552,0-1.552,1.541-1.552,1.541l24.033-0.05
			C37.017,21.404,35.415,21.105,35.415,21.105z M40.22,17.925c0,0-1.303-1.604-3.206-1.604l-23.923,0.011
			c0,0-1.91,0.052-3.312,1.542c0,0-9.613,11.017-9.613,12.775v15.904c0,1.758,1.434,3.182,3.204,3.182h43.26
			c1.771,0,3.204-1.424,3.204-3.182V30.649C49.834,28.892,40.22,17.925,40.22,17.925z M30.657,30.649
			c-1.501,0-1.601,1.49-1.601,1.49v3.281c0,1.392-1.604,1.59-1.604,1.59h-4.957c-1.603,0-1.603-1.59-1.603-1.59v-2.982
			c0-1.789-1.602-1.789-1.602-1.789H4.771l6.559-9.643c0,0,0.866-1.506,1.704-1.492h24.083c0,0,0.802,0.348,1.503,1.492l6.508,9.643
			H30.657z M11.332,27.368c-1.553,0-1.553,1.641-1.553,1.641l30.344-0.05c0-1.192-1.603-1.591-1.603-1.591H11.332z"/>
</svg>
