<?xml version="1.0" encoding="utf-8"?>
<!-- Generator: Adobe Illustrator 15.0.2, SVG Export Plug-In . SVG Version: 6.00 Build 0)  -->
<!DOCTYPE svg PUBLIC "-//W3C//DTD SVG 1.1//EN" "http://www.w3.org/Graphics/SVG/1.1/DTD/svg11.dtd">
<svg version="1.1" id="Layer_1" xmlns="http://www.w3.org/2000/svg" xmlns:xlink="http://www.w3.org/1999/xlink" x="0px" y="0px"
	 width="100%" height="100%" viewBox="0 0 50 50" enable-background="new 0 0 50 50" xml:space="preserve">
<g>
	<g>
		<g>
			<linearGradient id="SVGID_1_" gradientUnits="userSpaceOnUse" x1="25" y1="49.5654" x2="25" y2="14.2549">
				<stop  offset="0" style="stop-color:#5bf200"/>
				<stop  offset="1" style="stop-color:#34cb00"/>
			</linearGradient>
			<path fill-rule="evenodd" clip-rule="evenodd" fill="url(#SVGID_1_)" d="M4.724,20.395c0,0.85,0.7,1.536,1.562,1.536h7.806
				c0.865,0,1.563-0.687,1.563-1.536c0-0.846-0.699-1.533-1.563-1.533H6.285C5.423,18.862,4.724,19.549,4.724,20.395z M9.408,40.355
				c0.862,0,1.562-0.686,1.562-1.535s-0.7-1.536-1.562-1.536H1.6c-0.863,0-1.562,0.687-1.562,1.536s0.698,1.535,1.562,1.535H9.408z
				 M3.063,17.325h7.808c0.863,0,1.563-0.688,1.563-1.534c0-0.848-0.7-1.536-1.563-1.536H3.063c-0.862,0-1.562,0.688-1.562,1.536
				C1.502,16.637,2.202,17.325,3.063,17.325z M10.97,46.496H3.162c-0.861,0-1.562,0.687-1.562,1.536c0,0.847,0.7,1.533,1.562,1.533
				h7.808c0.863,0,1.562-0.687,1.562-1.533C12.531,47.183,11.833,46.496,10.97,46.496z M45.276,40.355l4.685-3.12h-8.979
				l-4.829,3.12H45.276z M35.021,30.678c0-0.303-0.104-0.877-0.313-1.049c-0.122-0.104-0.331-0.209-0.627-0.318v2.389
				c0.278-0.035,0.48-0.1,0.607-0.188C34.909,31.35,35.021,31.07,35.021,30.678z M33.565,35.651c3.879,0,7.026-3.093,7.026-6.909
				c0-3.815-3.147-6.908-7.026-6.908c-3.882,0-7.028,3.093-7.028,6.908C26.537,32.559,29.684,35.651,33.565,35.651z M33.132,29.012
				c-0.679-0.196-1.158-0.469-1.438-0.816c-0.28-0.351-0.421-0.773-0.421-1.267c0-0.323,0.055-0.62,0.163-0.886
				c0.107-0.266,0.261-0.496,0.457-0.687c0.252-0.251,0.533-0.42,0.844-0.517c0.188-0.058,0.122-0.103,0.485-0.13v-1.224h0.858
				v1.236c0.577,0.045,0.836,0.185,1.165,0.417c0.599,0.378,0.762,0.501,0.783,1.342h-1.062c-0.027-0.312-0.08-0.061-0.157-0.202
				c-0.135-0.248-0.377-0.384-0.729-0.409v1.999c0.844,0.287,1.264,0.541,1.554,0.762c0.478,0.365,0.718,1.222,0.718,1.89
				c0,0.88-0.329,1.521-0.986,1.92c-0.402,0.242-0.733,0.388-1.285,0.429v1.343h-0.907v-1.33c-0.701-0.079-0.834-0.229-1.179-0.454
				c-0.609-0.401-0.907-0.51-0.896-1.48h1.44c0.05,0.441,0.119,0.163,0.208,0.311c0.14,0.236,0.412,0.388,0.816,0.457v-2.576
				L33.132,29.012z M10.97,41.889H3.162c-0.861,0-1.562,0.689-1.562,1.536s0.7,1.536,1.562,1.536h7.808
				c0.863,0,1.562-0.689,1.562-1.536S11.833,41.889,10.97,41.889z M33.563,25.88c-0.31,0.006-0.539,0.087-0.688,0.245
				c-0.151,0.156-0.226,0.369-0.226,0.638c0,0.293,0.113,0.526,0.336,0.698c0.126,0.094,0.317,0.182,0.577,0.264V25.88z
				 M15.655,46.496h9.37v-1.535h-9.37V46.496z M31.563,37.284l-4.977,3.071v9.21h7.807v-9.21l4.441-3.071H31.563z M35.955,48.032
				v1.533h9.37l4.636-3.021v-1.633l-4.636,3.12H35.955z M10.97,32.68H3.162C2.3,32.68,1.6,33.365,1.6,34.212
				c0,0.85,0.7,1.536,1.562,1.536h7.808c0.863,0,1.562-0.687,1.562-1.536C12.531,33.365,11.833,32.68,10.97,32.68z M15.655,43.425
				h9.37v-1.536h-9.37V43.425z M35.955,44.961v1.535h9.37l4.636-3.023v-1.629l-4.636,3.117H35.955z M35.955,41.889v1.536h9.37
				l4.636-3.021v-1.633l-4.636,3.117H35.955z M14.091,23.467H6.285c-0.862,0-1.562,0.687-1.562,1.536c0,0.847,0.7,1.532,1.562,1.532
				h7.806c0.865,0,1.563-0.686,1.563-1.532C15.655,24.153,14.956,23.467,14.091,23.467z M12.531,28.072H4.724
				c-0.863,0-1.562,0.689-1.562,1.535c0,0.847,0.699,1.536,1.562,1.536h7.808c0.863,0,1.56-0.689,1.56-1.536
				C14.091,28.762,13.395,28.072,12.531,28.072z M15.655,49.565h9.37v-1.533h-9.37V49.565z M29.514,37.235h-8.833l-4.832,3.12h8.978
				L29.514,37.235z"/>
		</g>
	</g>
</g>
</svg>
