<?xml version="1.0" encoding="utf-8"?>
<!-- Generator: Adobe Illustrator 16.2.1, SVG Export Plug-In . SVG Version: 6.00 Build 0)  -->
<!DOCTYPE svg PUBLIC "-//W3C//DTD SVG 1.1//EN" "http://www.w3.org/Graphics/SVG/1.1/DTD/svg11.dtd">
<svg version="1.1" id="Shopping_Cart" xmlns="http://www.w3.org/2000/svg" xmlns:xlink="http://www.w3.org/1999/xlink" x="0px"
	 y="0px" width="100%" height="100%" viewBox="0 0 50 50" enable-background="new 0 0 50 50" xml:space="preserve">
<path fill-rule="evenodd" clip-rule="evenodd" d="M44.168,24.699l-5.843,20.893H11.586L5.743,24.699H4.412v-4.446h41.176v4.446
	H44.168z M38.489,37.062l0.311-1.219h-0.311V37.062z M38.489,34.449h0.665l0.71-2.785h-1.375V34.449z M11.511,26.093H8.672
	l1.065,4.178h1.774V26.093z M11.511,31.664h-1.419l0.71,2.785h0.709V31.664z M11.511,35.843h-0.354l0.354,1.392V35.843z
	 M15.771,26.093h-2.839v4.178h2.839V26.093z M15.771,31.664h-2.839v2.785h2.839V31.664z M15.771,35.843h-2.839v2.785h2.839V35.843z
	 M15.771,40.021h-2.839v2.785h2.839V40.021z M20.031,26.093h-2.84v4.178h2.84V26.093z M20.031,31.664h-2.84v2.785h2.84V31.664z
	 M20.031,35.843h-2.84v2.785h2.84V35.843z M20.031,40.021h-2.84v2.785h2.84V40.021z M24.29,26.093h-2.839v4.178h2.839V26.093z
	 M24.29,31.664h-2.839v2.785h2.839V31.664z M24.29,35.843h-2.839v2.785h2.839V35.843z M24.29,40.021h-2.839v2.785h2.839V40.021z
	 M28.55,26.093h-2.84v4.178h2.84V26.093z M28.55,31.664h-2.84v2.785h2.84V31.664z M28.55,35.843h-2.84v2.785h2.84V35.843z
	 M28.55,40.021h-2.84v2.785h2.84V40.021z M32.809,26.093h-2.84v4.178h2.84V26.093z M32.809,31.664h-2.84v2.785h2.84V31.664z
	 M32.809,35.843h-2.84v2.785h2.84V35.843z M32.809,40.021h-2.84v2.785h2.84V40.021z M37.069,26.093h-2.841v4.178h2.841V26.093z
	 M37.069,31.664h-2.841v2.785h2.841V31.664z M37.069,35.843h-2.841v2.785h2.841V35.843z M37.069,40.021h-2.841v2.785h2.796
	l0.045-0.175V40.021z M38.489,26.093v4.178h1.73l1.064-4.178H38.489z M29.751,18.669H25L33.582,5
	c0.45-0.631,1.335-0.784,1.979-0.344l1.162,0.798c0.644,0.441,0.8,1.309,0.352,1.94L29.751,18.669z"/>
</svg>
